<?xml version="1.0" encoding="UTF-8" standalone="no"?>
<!-- Created with Inkscape (http://www.inkscape.org/) -->

<svg
   version="1.1"
   id="svg2"
   xml:space="preserve"
   width="890.28662"
   height="155.62267"
   viewBox="0 0 890.28662 155.62266"
   sodipodi:docname="133eceae2f3604128e3660968ed544f0.eps"
   xmlns:inkscape="http://www.inkscape.org/namespaces/inkscape"
   xmlns:sodipodi="http://sodipodi.sourceforge.net/DTD/sodipodi-0.dtd"
   xmlns="http://www.w3.org/2000/svg"
   xmlns:svg="http://www.w3.org/2000/svg"><defs
     id="defs6" /><sodipodi:namedview
     id="namedview4"
     pagecolor="#ffffff"
     bordercolor="#666666"
     borderopacity="1.0"
     inkscape:pageshadow="2"
     inkscape:pageopacity="0.0"
     inkscape:pagecheckerboard="0" /><g
     id="g8"
     inkscape:groupmode="layer"
     inkscape:label="ink_ext_XXXXXX"
     transform="matrix(1.3333333,0,0,-1.3333333,0,155.62266)"><g
       id="g10"
       transform="scale(0.1)"><path
         d="M 6677.15,0 H 0 V 1167.17 H 6677.15 V 0"
         style="fill:#1e59ae;fill-opacity:1;fill-rule:nonzero;stroke:none"
         id="path12" /><path
         d="M 913.223,622.211 545.254,990.141 458.594,903.527 742.043,620.082 593.816,471.816 678.574,387.055 913.223,622.211"
         style="fill:#fdd605;fill-opacity:1;fill-rule:nonzero;stroke:none"
         id="path14" /><path
         d="m 643.445,619.531 -98.601,98.625 -98.684,-98.679 98.625,-98.625 98.66,98.679"
         style="fill:#fdd605;fill-opacity:1;fill-rule:nonzero;stroke:none"
         id="path16" /><path
         d="M 631.113,339.941 348.652,622.375 494.609,768.313 409.07,853.84 176.941,621.691 544.902,253.723 l 86.211,86.218"
         style="fill:#fdd605;fill-opacity:1;fill-rule:nonzero;stroke:none"
         id="path18" /><path
         d="m 1139.44,284.848 h 83.06 v 29.39 H 1105.97 V 181.047 h 33.47 v 47.746 h 46.62 v 30.379 h -46.62 v 25.676"
         style="fill:#ffffff;fill-opacity:1;fill-rule:nonzero;stroke:none"
         id="path20" /><path
         d="m 1286.06,238.715 h -36.51 l 18.59,38.504 z m -31.86,75.523 -66.49,-133.191 h 34.4 l 12.88,27.539 h 65.37 l 13.33,-27.539 h 37.6 l -67.38,133.191 h -29.71"
         style="fill:#ffffff;fill-opacity:1;fill-rule:nonzero;stroke:none"
         id="path22" /><path
         d="m 1343.41,314.238 46.27,-45.965 46.03,45.965 h 41.97 l -71.24,-74.297 v -58.894 h -33.71 v 58.894 l -71.06,74.297 h 41.74"
         style="fill:#ffffff;fill-opacity:1;fill-rule:nonzero;stroke:none"
         id="path24" /><path
         d="m 1526.2,238.715 h -36.53 l 18.56,38.504 z m -31.88,75.523 -66.5,-133.191 h 34.4 l 12.89,27.539 h 65.35 l 13.33,-27.539 h 37.61 l -67.37,133.191 h -29.71"
         style="fill:#ffffff;fill-opacity:1;fill-rule:nonzero;stroke:none"
         id="path26" /><path
         d="m 1562.43,314.238 v -29.91 h 40.46 V 181.047 h 33.47 v 103.281 h 37.55 v 29.91 h -111.48"
         style="fill:#ffffff;fill-opacity:1;fill-rule:nonzero;stroke:none"
         id="path28" /><path
         d="m 1258.17,381.359 c -1.15,-8.464 -1.44,-10.984 -2.01,-17.82 l -1.73,-1.262 c -7.2,-2.343 -25.34,-7.929 -54.42,-7.929 -63.06,0 -100.2,26.113 -100.2,66.257 0,8.833 1.15,30.618 26.21,47.715 24.47,16.75 55.57,18.547 76.01,18.547 26.49,0 43.19,-3.594 52.69,-5.762 l 1.15,-1.433 c -1.44,-6.484 -1.72,-8.281 -2.59,-16.027 l -2.59,-0.723 c -5.76,2.344 -20.45,8.105 -45.78,8.105 -46.07,0 -71.12,-19.804 -71.12,-50.058 0,-34.024 29.66,-49.871 69.39,-49.871 27.06,0 44.05,7.019 52.98,10.984 l 2.01,-0.723"
         style="fill:#ffffff;fill-opacity:1;fill-rule:nonzero;stroke:none"
         id="path30" /><path
         d="m 1504.99,357.055 c -15.26,0 -16.42,0 -32.54,-0.539 l -1.73,1.257 c 0.87,20.168 1.73,41.957 1.44,60.5 -6.62,0 -13.82,0.176 -27.06,0.176 -22.46,0 -47.22,-0.176 -67.09,-0.359 -0.29,-34.211 0.57,-46.274 2.01,-59.777 l -1.44,-1.258 c -15.83,0 -16.7,0 -32.53,-0.539 l -1.73,1.257 c 1.15,17.649 1.44,26.829 1.44,81.391 0,24.305 -0.86,32.945 -1.73,43.75 l 1.73,1.258 c 14.68,0.176 18.14,0.176 31.96,0.539 l 1.44,-1.262 c -0.29,-10.625 -0.86,-25.39 -0.86,-50.051 14.97,-0.183 23.03,-0.359 41.74,-0.359 26.5,0 38.59,0.176 52.12,0.535 -0.57,34.211 -0.57,38.176 -2.01,49.34 l 1.44,1.258 c 15.54,0.176 17.85,0.176 31.95,0.539 l 1.45,-1.262 c -0.87,-17.461 -1.16,-28.808 -1.16,-60.312 0,-34.93 1.16,-48.262 2.88,-64.824 l -1.72,-1.258"
         style="fill:#ffffff;fill-opacity:1;fill-rule:nonzero;stroke:none"
         id="path32" /><path
         d="m 1641.24,410.355 c 9.21,0 18.43,-0.187 27.64,-0.187 9.79,0 20.16,0.187 30.24,0.187 l -27.65,60.848 z m 57.01,70.04 c 9.5,-19.805 20.44,-42.141 29.08,-59.243 8.93,-17.285 23.32,-45.015 31.96,-62.3 l -1.15,-1.438 c -14.97,-0.184 -21.31,-0.359 -33.4,-0.723 l -2.02,1.258 c -7.19,16.926 -9.5,21.789 -16.98,37.992 -11.52,0 -22.75,0.184 -34.27,0.184 -12.67,0 -25.91,-0.184 -37.43,-0.184 -8.35,-16.925 -10.08,-21.242 -16.99,-37.265 l -2.01,-1.262 c -12.38,0 -15.26,0 -29.66,-0.535 l -1.15,1.258 c 0.86,1.972 2.02,3.781 3.17,5.578 10.93,19.441 21.59,38.894 31.96,58.34 17.27,31.863 23.61,43.574 31.96,60.859 l 2.3,1.258 c 20.15,0.176 22.75,0.176 41.17,0.723 l 2.02,-1.258 1.44,-3.242"
         style="fill:#ffffff;fill-opacity:1;fill-rule:nonzero;stroke:none"
         id="path34" /><path
         d="m 2037.2,483.449 c 1.44,-41.765 3.74,-83.359 7.48,-125.136 l -1.44,-1.258 c -14.39,0 -16.12,-0.176 -31.09,-0.539 l -1.73,1.257 c 0.29,20.344 0,26.645 -0.86,46.457 l -0.58,19.083 c 0,12.785 -0.29,40.332 -0.29,47.175 -4.6,-10.445 -8.92,-19.988 -21.02,-45.191 l -13.24,-26.113 c -10.66,-19.985 -14.11,-27.004 -20.73,-40.871 l -1.73,-1.258 c -15.55,0 -16.99,0 -33.4,-0.539 l -1.73,1.257 c -1.44,3.059 -2.88,6.125 -4.32,9.004 -2.3,5.578 -14.97,32.407 -17.85,38.352 l -11.52,25.207 c -11.51,25.75 -12.67,28.633 -16.69,40.152 -0.29,-18.008 -0.58,-21.968 -1.45,-39.976 L 1863,398.281 c -1.15,-21.238 -1.15,-25.926 -1.44,-39.968 l -1.44,-1.258 c -13.82,0 -15.55,0 -27.64,-0.539 l -1.44,1.257 c 0.57,3.594 1.15,7.383 1.72,10.981 2.88,21.426 4.04,42.859 6.05,64.285 2.88,32.043 3.17,34.024 3.17,49.875 l 1.73,1.258 c 21.02,0 26.2,0.176 44.34,0.539 l 2.01,-1.262 c 5.18,-14.402 10.08,-24.844 15.84,-37.09 l 31.39,-72.746 36.56,75.09 c 11.52,23.406 12.1,24.309 16.41,34.211 l 1.73,1.258 c 21.02,0 23.61,0.176 43.48,0.539 l 1.73,-1.262"
         style="fill:#ffffff;fill-opacity:1;fill-rule:nonzero;stroke:none"
         id="path36" /><path
         d="m 2210.31,420.793 c 7.77,0.359 28.5,1.621 38.58,12.781 3.46,3.781 4.9,8.457 4.9,12.961 0,3.606 -0.87,7.57 -3.45,11.172 -9.51,12.422 -31.39,12.598 -43.48,12.598 -14.4,0 -18.14,-0.364 -25.92,-0.723 0,-8.281 -0.28,-16.738 -0.28,-25.203 0,-8.106 0.28,-16.203 0.28,-24.309 9.79,0.188 21.59,0.188 29.37,0.723 z m -28.79,-63.738 c -15.84,0 -16.7,0 -31.68,-0.539 l -1.72,1.257 c 0.58,11.34 0.86,20.168 0.86,41.235 0,27.91 0,56.531 -2.59,83.906 l 1.44,1.258 c 4.61,0 26.2,0.359 31.38,0.359 l 19.01,0.364 c 19,0 33.69,0 47.51,-2.704 31.96,-6.484 40.31,-23.046 40.31,-35.468 0,-7.207 -2.88,-14.231 -8.64,-20.168 -16.7,-17.469 -48.95,-21.25 -83.22,-21.25 -5.17,0 -8.92,0.183 -12.95,0.183 0.29,-19.449 0.29,-25.215 2.02,-47.175 l -1.73,-1.258"
         style="fill:#ffffff;fill-opacity:1;fill-rule:nonzero;stroke:none"
         id="path38" /><path
         d="m 2390.09,410.355 c 9.22,0 18.43,-0.187 27.65,-0.187 9.78,0 20.16,0.187 30.23,0.187 l -27.64,60.848 z m 57.01,70.04 c 9.51,-19.805 20.45,-42.141 29.09,-59.243 8.92,-17.285 23.32,-45.015 31.96,-62.3 l -1.15,-1.438 c -14.97,-0.184 -21.31,-0.359 -33.4,-0.723 l -2.02,1.258 c -7.2,16.926 -9.5,21.789 -16.99,37.992 -11.51,0 -22.74,0.184 -34.26,0.184 -12.67,0 -25.91,-0.184 -37.43,-0.184 -8.35,-16.925 -10.08,-21.242 -16.99,-37.265 l -2.02,-1.262 c -12.37,0 -15.25,0 -29.66,-0.535 l -1.14,1.258 c 0.86,1.972 2.01,3.781 3.16,5.578 10.94,19.441 21.6,38.894 31.97,58.34 17.27,31.863 23.6,43.574 31.95,60.859 l 2.31,1.258 c 20.15,0.176 22.75,0.176 41.18,0.723 l 2.01,-1.258 1.43,-3.242"
         style="fill:#ffffff;fill-opacity:1;fill-rule:nonzero;stroke:none"
         id="path40" /><path
         d="m 2742.63,418.449 c -1.15,-14.219 -1.44,-28.625 -1.44,-39.433 0,-7.383 0.29,-10.618 0.57,-16.028 l -1.73,-1.258 c -20.15,-5.039 -39.44,-7.382 -61.03,-7.382 -28.22,0 -59.32,4.328 -80.63,18.73 -14.11,9.539 -25.34,25.203 -25.34,45.906 0,20.891 11.23,37.641 27.36,48.801 25.91,18.184 59.61,19.082 74.86,19.082 31.1,0 50.67,-5.398 58.74,-7.734 l 1.43,-1.258 c -1.43,-6.309 -2.01,-9.191 -3.16,-17.473 l -2.3,-0.359 c -8.93,3.777 -26.21,10.801 -52.98,10.801 -10.36,0 -35.41,-0.715 -53.27,-15.84 -14.4,-12.246 -15.83,-27.727 -15.83,-36.02 0,-29.707 24.76,-48.961 71.12,-48.961 14.39,0 23.03,1.793 29.65,3.055 l 0.29,13.508 c 0,13.855 -1.15,24.668 -1.73,31.328 l 1.73,1.258 c 15.55,0 18.71,0 32.25,0.359 l 1.44,-1.082"
         style="fill:#ffffff;fill-opacity:1;fill-rule:nonzero;stroke:none"
         id="path42" /><path
         d="m 2997.81,358.313 -1.45,-1.258 c -16.98,0 -18.13,0 -35.41,-0.539 l -2.3,1.257 c -16.99,18.911 -33.98,37.817 -51.26,56.719 l -45.49,50.774 2.88,-61.758 c 0.28,-7.567 0.86,-14.942 1.15,-22.508 0.86,-14.941 0.86,-15.305 1.44,-22.687 l -1.73,-1.258 c -12.67,0 -13.82,0 -27.64,-0.539 l -1.73,1.257 c 1.16,17.102 1.44,34.387 1.44,51.497 0,24.484 -0.28,49.152 -1.73,73.644 l 1.45,1.258 c 17.85,0.176 20.73,0.176 37.14,0.539 l 2.88,-1.262 c 19.58,-21.965 39.73,-44.836 58.74,-65.722 l 35.7,-39.422 -2.31,59.773 c -1.15,28.274 -1.43,32.41 -2.58,44.836 l 1.73,1.258 c 12.94,0 15.83,0.176 27.35,0.539 l 1.73,-1.262 c -0.58,-21.965 -1.15,-44.472 -1.15,-66.621 0,-16.926 0.28,-34.023 0.85,-50.957 l 0.3,-7.558"
         style="fill:#ffffff;fill-opacity:1;fill-rule:nonzero;stroke:none"
         id="path44" /><path
         d="m 3228.51,371.816 c -0.87,-6.121 -0.87,-7.378 -1.44,-13.503 l -2.02,-1.258 c -56.15,0 -65.07,-0.176 -119.78,-0.539 l -1.44,1.257 c 0.86,14.219 1.73,23.95 1.73,56.899 0,30.254 0,47.539 -2.02,68.242 l 1.73,1.258 c 56.73,0.176 67.96,0.176 120.94,0.539 l 1.72,-1.262 c -0.86,-5.398 -1.44,-7.558 -2.02,-14.043 l -1.73,-1.258 c -37.13,0.719 -49.52,0.719 -86.09,0.899 -0.86,-16.567 -0.86,-21.789 -0.86,-38.352 35.42,-0.183 46.36,0 81.49,0.364 l 1.44,-1.262 c -1.15,-6.309 -1.15,-8.106 -1.44,-13.867 l -1.73,-1.258 c -33.4,0.535 -40.6,0.535 -79.76,0.535 -0.57,-20.879 -0.28,-25.93 0,-43.027 43.48,0 52.4,0 89.55,0.898 l 1.73,-1.262"
         style="fill:#ffffff;fill-opacity:1;fill-rule:nonzero;stroke:none"
         id="path46" /><path
         d="M 913.223,622.211 545.254,990.141 458.594,903.527 742.043,620.082 593.816,471.816 678.574,387.055 913.223,622.211"
         style="fill:#fdd605;fill-opacity:1;fill-rule:nonzero;stroke:none"
         id="path48" /><path
         d="m 1297.13,835.832 c 0,43.313 -31.94,43.313 -44.47,43.313 -1.88,0 -10.65,0 -18.17,-0.579 -0.62,-41.562 -0.62,-52.097 0,-91.906 25.68,-0.586 62.64,-1.746 62.64,49.172 z m 3.13,-172.09 c 0,46.25 -36.33,45.078 -67.02,43.906 V 610.48 c 26.93,-1.171 67.02,-2.343 67.02,53.262 z m -189.79,286.817 c 48.86,0 75.79,0.586 103.98,1.171 36.96,0.586 41.34,0.586 51.36,0.586 62.01,0 150.96,0 150.96,-97.753 0,-46.243 -25.69,-73.75 -58.25,-87.801 -4.39,-1.75 -9.4,-3.508 -13.79,-5.266 4.39,-0.586 9.4,-1.172 13.79,-2.344 11.9,-2.343 23.17,-7.019 33.82,-13.457 35.7,-22.832 40.71,-59.707 40.71,-83.113 0,-50.344 -26.31,-84.289 -51.36,-100.684 -35.7,-23.996 -84.56,-24.582 -115.25,-25.168 h -74.54 c -11.27,0 -67.02,-0.585 -79.55,-1.171 l -3.76,3.515 c 1.88,71.406 3.13,141.653 3.13,213.059 0,64.969 -0.62,129.937 -3.76,194.91 l 2.51,3.516"
         style="fill:#ffffff;fill-opacity:1;fill-rule:nonzero;stroke:none"
         id="path50" /><path
         d="m 1713.03,708.234 c -26.31,0.586 -78.3,0.586 -110.87,0.586 v -84.289 c 30.7,0 96.46,0.586 134.05,3.508 l 3.76,-3.508 c -3.14,-37.461 -3.76,-48.582 -5.02,-84.285 l -3.75,-3.516 h -139.06 c -64.52,0 -73.91,0 -113.38,-1.757 l -3.13,3.515 c 1.26,43.899 2.51,92.481 2.51,186.133 0,73.75 0,152.188 -4.39,221.836 l 3.76,3.516 c 27.56,0 35.08,0 104.61,0.586 102.72,0.586 114.62,0.586 145.94,1.171 l 3.14,-3.515 c -3.14,-37.461 -3.14,-48.582 -4.39,-78.438 l -3.76,-3.504 c -10.02,0 -60.13,0.582 -71.4,0.582 -6.89,0 -10.65,0 -49.49,-0.582 -0.63,-35.707 -0.63,-43.898 0,-76.679 35.71,0 87.69,1.172 115.26,2.344 l 3.75,-3.516 c -2.5,-32.192 -2.5,-44.484 -4.38,-76.684 l -3.76,-3.504"
         style="fill:#ffffff;fill-opacity:1;fill-rule:nonzero;stroke:none"
         id="path52" /><path
         d="m 2074.44,640.922 c -2.51,-39.223 -3.13,-47.414 -4.38,-94.824 l -2.51,-2.93 c -18.79,-8.195 -50.11,-14.043 -90.82,-14.043 -40.71,0 -102.73,3.504 -150.96,50.918 -41.97,40.977 -55.75,99.512 -55.75,157.461 0,38.621 4.39,118.23 62.64,172.664 45.73,42.734 101.48,48 143.44,48 17.54,0 63.89,-1.176 97.09,-16.391 l 2.5,-3.511 c -1.87,-16.973 -3.12,-33.95 -3.76,-50.344 -1.25,-14.629 -1.87,-29.258 -2.5,-43.899 l -3.76,-1.753 c -10.02,7.617 -31.31,24.003 -65.77,24.003 -42.59,0 -62,-21.078 -71.4,-34.543 -13.16,-18.144 -23.18,-47.402 -23.18,-89.55 0,-43.899 13.16,-81.946 36.33,-101.844 20.67,-16.977 43.22,-19.316 60.76,-19.316 31.32,0 49.48,8.191 68.27,21.074 l 3.76,-1.172"
         style="fill:#ffffff;fill-opacity:1;fill-rule:nonzero;stroke:none"
         id="path54" /><path
         d="m 2545.46,640.922 c -2.5,-39.223 -3.13,-47.414 -4.39,-94.824 l -2.5,-2.93 c -18.78,-8.195 -50.1,-14.043 -90.83,-14.043 -40.71,0 -102.72,3.504 -150.94,50.918 -41.98,40.977 -55.76,99.512 -55.76,157.461 0,38.621 4.39,118.23 62.64,172.664 45.72,42.734 101.48,48 143.44,48 17.54,0 63.9,-1.176 97.09,-16.391 l 2.51,-3.511 c -1.89,-16.973 -3.14,-33.95 -3.76,-50.344 -1.25,-14.629 -1.89,-29.258 -2.51,-43.899 l -3.76,-1.753 c -10.02,7.617 -31.32,24.003 -65.76,24.003 -42.6,0 -62.01,-21.078 -71.41,-34.543 -13.15,-18.144 -23.18,-47.402 -23.18,-89.55 0,-43.899 13.15,-81.946 36.34,-101.844 20.66,-16.977 43.21,-19.316 60.75,-19.316 31.32,0 49.48,8.191 68.28,21.074 l 3.75,-1.172"
         style="fill:#ffffff;fill-opacity:1;fill-rule:nonzero;stroke:none"
         id="path56" /><path
         d="m 2797.27,834.074 c -2.51,7.61 -12.53,39.805 -44.48,39.805 -10.03,0 -20.05,-4.102 -27.57,-10.535 -12.51,-11.125 -21.28,-32.192 -25.04,-71.992 -1.26,-14.055 -1.89,-31.028 -1.89,-50.344 0,-15.801 0.63,-31.602 1.89,-46.824 1.87,-17.559 6.26,-53.848 26.93,-70.239 6.88,-5.269 16.28,-8.777 25.05,-8.777 9.4,0 18.16,3.508 25.06,8.777 19.41,15.215 24.43,49.16 26.93,70.239 1.25,15.808 1.89,31.609 1.89,47.41 0,11.125 -0.64,63.801 -8.77,92.48 z m 82.67,79.024 c 55.12,-53.848 56.38,-141.653 56.38,-172.676 0,-25.75 -1.89,-51.504 -8.15,-77.266 -6.26,-27.508 -17.54,-53.847 -36.32,-76.086 -48.24,-57.359 -120.27,-57.945 -140.94,-57.945 -20.67,0 -90.2,0.586 -138.43,56.773 -24.42,29.27 -44.47,77.258 -44.47,152.18 0,32.195 1.88,120 56.37,173.848 43.85,43.308 99.59,46.242 127.78,46.242 23.18,0 82.68,-1.176 127.78,-45.07"
         style="fill:#ffffff;fill-opacity:1;fill-rule:nonzero;stroke:none"
         id="path58" /><path
         d="m 3078.5,763.254 3.76,-85.457 c 1.87,-69.66 2.5,-73.164 5.63,-137.551 l -4.38,-3.516 c -47.61,0 -51.37,0 -98.97,-1.757 l -3.76,3.515 c 0.63,29.856 1.25,58.535 1.25,104.778 0,44.48 -1.25,158.035 -1.25,194.324 -0.62,36.289 -1.88,72.578 -3.13,108.867 l 3.76,3.516 c 48.85,0 63.26,0 112.74,1.757 l 5.01,-2.929 c 19.42,-34.531 28.19,-47.996 77.68,-121.746 l 60.12,-87.219 -2.5,98.926 c -0.62,15.215 -2.51,90.722 -3.76,107.695 l 3.76,3.516 c 45.1,0.586 63.26,1.172 95.21,1.757 l 3.76,-3.515 c 0,-36.289 -1.25,-215.985 -1.25,-256.375 0,-77.258 1.25,-118.82 1.87,-151.594 l -3.76,-3.516 c -46.34,0 -55.11,0 -102.72,-1.757 l -4.39,3.515 c -29.43,48.582 -44.47,71.992 -73.9,117.063 l -70.78,107.703"
         style="fill:#ffffff;fill-opacity:1;fill-rule:nonzero;stroke:none"
         id="path60" /><path
         d="m 3617.17,849.301 c -16.29,12.285 -35.7,26.922 -70.78,26.922 -24.43,0 -43.85,-12.879 -43.85,-33.368 0,-19.906 16.29,-33.363 46.35,-52.089 57.62,-37.461 94.59,-60.879 94.59,-125.852 0,-39.797 -15.04,-71.406 -35.08,-92.48 -35.07,-36.289 -82.69,-43.899 -127.79,-43.899 -34.45,0 -68.89,5.852 -95.84,18.149 l -3.75,5.261 c 1.25,15.227 2.5,30.442 3.13,45.664 0.62,12.871 0.62,25.75 1.27,38.621 l 4.37,1.758 c 8.77,-7.019 33.83,-26.336 77.05,-26.336 45.1,0 50.1,31.614 50.1,40.391 0,21.062 -17.54,32.773 -41.95,49.16 l -25.69,16.399 c -29.45,19.902 -70.15,47.41 -70.15,114.714 0,41.563 15.66,72.586 36.95,92.493 25.68,23.406 62.64,33.945 110.23,33.945 55.14,0 86.45,-14.055 98.34,-19.316 l 2.52,-4.102 c -1.25,-14.629 -2.52,-29.262 -3.14,-43.898 l -1.88,-40.391 -5,-1.746"
         style="fill:#ffffff;fill-opacity:1;fill-rule:nonzero;stroke:none"
         id="path62" /><path
         d="m 3852.82,536.73 c -56.99,0 -68.28,0 -124.03,-1.757 l -3.12,2.929 c 2.5,60.286 3.75,313.145 3.75,327.2 -15.65,-0.586 -31.31,-0.586 -47.6,-0.586 -13.79,-0.586 -26.31,-0.586 -38.83,-1.172 l -3.14,3.511 c 1.87,31.606 2.52,43.313 3.14,79.602 l 3.75,3.516 h 154.71 c 23.18,0 46.37,0.586 70.16,0.586 23.18,0.586 52.61,0.586 70.78,1.171 l 3.14,-3.515 c -3.14,-35.117 -3.77,-43.313 -5.02,-80.188 l -3.75,-3.511 c -41.97,1.172 -53.24,1.172 -82.69,1.757 0,-23.418 -0.63,-51.515 -0.63,-93.656 0,-73.75 0,-159.793 3.15,-232.957 l -3.77,-2.93"
         style="fill:#ffffff;fill-opacity:1;fill-rule:nonzero;stroke:none"
         id="path64" /><path
         d="m 4114.5,770.273 c 28.81,8.782 31.95,36.293 31.95,53.262 0,7.031 -0.62,19.32 -6.27,29.856 -4.39,8.781 -11.89,16.386 -30.06,16.386 -5.64,0 -13.79,0 -18.81,-1.164 0,-27.508 -1.25,-72.586 -1.87,-100.093 14.41,-1.172 22.56,1.171 25.06,1.753 z m -147.83,179.7 c 21.93,0 127.79,1.172 152.22,1.172 36.33,0 73.28,-1.758 98.97,-14.637 50.09,-24.582 53.86,-83.703 53.86,-109.453 0,-71.407 -38.22,-96.582 -57.01,-108.867 l 25.06,-58.54 c 11.9,-26.921 30.08,-69.656 55.12,-115.894 l -2.5,-4.094 c -58.24,-1.758 -72.66,-2.344 -128.4,-5.273 l -4.4,3.515 c -2.5,6.438 -5,12.871 -6.89,19.903 -10.02,29.851 -20.04,60.285 -30.06,90.136 l -14.41,42.735 c -6.88,-0.586 -11.27,-0.586 -18.17,-0.586 0,-72 0,-97.168 3.77,-149.844 l -3.14,-3.516 c -56.99,0 -63.26,0 -121.51,-1.757 l -3.76,3.515 c 0.62,28.684 3.14,169.746 3.14,201.348 0,37.461 -0.63,145.168 -4.39,206.621 l 2.5,3.516"
         style="fill:#ffffff;fill-opacity:1;fill-rule:nonzero;stroke:none"
         id="path66" /><path
         d="m 4648.77,948.215 c -1.25,-46.238 -1.25,-74.922 -2.5,-204.277 l -0.62,-28.68 c -0.63,-73.164 -1.25,-102.434 -25.06,-134.043 -38.83,-52.09 -109.61,-52.09 -136.54,-52.09 -28.19,0 -126.53,0 -154.71,84.871 -8.14,23.992 -8.77,50.918 -8.77,104.777 v 24.579 c -0.62,40.39 -0.62,46.242 -0.62,103.015 0,42.727 -0.65,65.559 -1.9,100.09 l 3.15,3.516 c 54.49,0 67.63,0 125.89,1.757 l 3.13,-3.515 c -1.88,-76.68 -1.88,-153.36 -1.88,-230.027 0,-52.102 0.63,-74.922 14.42,-90.735 10.02,-11.699 22.54,-13.457 31.31,-13.457 43.22,0 43.85,43.899 43.85,86.047 1.25,62.039 1.25,127.598 1.25,189.637 0,23.418 0,29.265 -0.63,56.777 l 3.77,3.516 c 50.72,0 63.26,0.586 102.71,1.757 l 3.75,-3.515"
         style="fill:#ffffff;fill-opacity:1;fill-rule:nonzero;stroke:none"
         id="path68" /><path
         d="m 4996.41,640.922 c -2.5,-39.223 -3.12,-47.414 -4.39,-94.824 l -2.5,-2.93 c -18.79,-8.195 -50.1,-14.043 -90.82,-14.043 -40.73,0 -102.74,3.504 -150.96,50.918 -41.97,40.977 -55.74,99.512 -55.74,157.461 0,38.621 4.37,118.23 62.63,172.664 45.73,42.734 101.47,48 143.44,48 17.54,0 63.89,-1.176 97.09,-16.391 l 2.5,-3.511 c -1.87,-16.973 -3.12,-33.95 -3.75,-50.344 -1.25,-14.629 -1.89,-29.258 -2.52,-43.899 l -3.75,-1.753 c -10.02,7.617 -31.33,24.003 -65.76,24.003 -42.6,0 -62.01,-21.078 -71.41,-34.543 -13.16,-18.144 -23.18,-47.402 -23.18,-89.55 0,-43.899 13.14,-81.946 36.33,-101.844 20.66,-16.977 43.22,-19.316 60.76,-19.316 31.31,0 49.47,8.191 68.28,21.074 l 3.75,-1.172"
         style="fill:#ffffff;fill-opacity:1;fill-rule:nonzero;stroke:none"
         id="path70" /><path
         d="m 5224.26,536.73 c -57.01,0 -68.28,0 -124.02,-1.757 l -3.15,2.929 c 2.52,60.286 3.77,313.145 3.77,327.2 -15.66,-0.586 -31.32,-0.586 -47.61,-0.586 -13.77,-0.586 -26.31,-0.586 -38.83,-1.172 l -3.13,3.511 c 1.88,31.606 2.5,43.313 3.13,79.602 l 3.77,3.516 h 154.71 c 23.16,0 46.34,0.586 70.15,0.586 23.17,0.586 52.62,0.586 70.78,1.171 l 3.13,-3.515 c -3.13,-35.117 -3.75,-43.313 -5.02,-80.188 l -3.75,-3.511 c -41.97,1.172 -53.24,1.172 -82.68,1.757 0,-23.418 -0.62,-51.515 -0.62,-93.656 0,-73.75 0,-159.793 3.12,-232.957 l -3.75,-2.93"
         style="fill:#ffffff;fill-opacity:1;fill-rule:nonzero;stroke:none"
         id="path72" /><path
         d="m 5469.65,536.73 c -60.11,0.586 -74.53,0 -127.77,-1.757 l -3.13,2.929 c 1.25,84.289 1.88,168.575 1.88,252.864 0,72.578 -1.25,114.136 -3.14,155.691 l 3.76,3.516 c 55.75,-0.586 68.91,-0.586 127.15,1.757 l 3.77,-3.515 c -1.27,-31.61 -3.14,-80.774 -3.14,-168.574 0,-80.184 0.62,-159.793 3.77,-239.981 l -3.15,-2.93"
         style="fill:#ffffff;fill-opacity:1;fill-rule:nonzero;stroke:none"
         id="path74" /><path
         d="m 5744.63,834.074 c -2.52,7.61 -12.54,39.805 -44.47,39.805 -10.04,0 -20.06,-4.102 -27.58,-10.535 -12.52,-11.125 -21.29,-32.192 -25.04,-71.992 -1.27,-14.055 -1.89,-31.028 -1.89,-50.344 0,-15.801 0.62,-31.602 1.89,-46.824 1.88,-17.559 6.25,-53.848 26.94,-70.239 6.87,-5.269 16.27,-8.777 25.04,-8.777 9.41,0 18.16,3.508 25.06,8.777 19.41,15.215 24.43,49.16 26.93,70.239 1.25,15.808 1.89,31.609 1.89,47.41 0,11.125 -0.64,63.801 -8.77,92.48 z m 82.68,79.024 c 55.12,-53.848 56.37,-141.653 56.37,-172.676 0,-25.75 -1.88,-51.504 -8.15,-77.266 -6.25,-27.508 -17.54,-53.847 -36.33,-76.086 -48.22,-57.359 -120.25,-57.945 -140.93,-57.945 -20.67,0 -90.2,0.586 -138.42,56.773 -24.43,29.27 -44.47,77.258 -44.47,152.18 0,32.195 1.87,120 56.36,173.848 43.85,43.308 99.59,46.242 127.78,46.242 23.18,0 82.69,-1.176 127.79,-45.07"
         style="fill:#ffffff;fill-opacity:1;fill-rule:nonzero;stroke:none"
         id="path76" /><path
         d="m 6025.86,763.254 3.75,-85.457 c 1.88,-69.66 2.5,-73.164 5.65,-137.551 l -4.4,-3.516 c -47.59,0 -51.36,0 -98.96,-1.757 l -3.75,3.515 c 0.62,29.856 1.25,58.535 1.25,104.778 0,44.48 -1.25,158.035 -1.25,194.324 -0.63,36.289 -1.9,72.578 -3.15,108.867 l 3.77,3.516 c 48.85,0 63.27,0 112.74,1.757 l 5.02,-2.929 c 19.41,-34.531 28.18,-47.996 77.67,-121.746 l 60.12,-87.219 -2.5,98.926 c -0.62,15.215 -2.5,90.722 -3.75,107.695 l 3.75,3.516 c 45.1,0.586 63.26,1.172 95.22,1.757 l 3.75,-3.515 c 0,-36.289 -1.25,-215.985 -1.25,-256.375 0,-77.258 1.25,-118.82 1.87,-151.594 l -3.75,-3.516 c -46.35,0 -55.12,0 -102.73,-1.757 l -4.38,3.515 c -29.43,48.582 -44.47,71.992 -73.9,117.063 l -70.79,107.703"
         style="fill:#ffffff;fill-opacity:1;fill-rule:nonzero;stroke:none"
         id="path78" /></g></g></svg>
