<?xml version="1.0" encoding="UTF-8"?>
<svg version="1.1" xmlns="http://www.w3.org/2000/svg" width="2953" height="1181">
<path d="M0 0 C1.61591281 2.4543686 3.05274226 4.86091902 4.4609375 7.4296875 C10.07156969 17.30281364 16.29283835 26.70399876 22.625 36.125 C23.77369773 37.84151444 24.92221488 39.55814974 26.07055664 41.27490234 C34.10367345 53.26504222 42.24989142 65.17008256 50.60327148 76.93994141 C52.16355458 79.24122942 53.5771991 81.61180665 55 84 C54.97272324 82.94986221 54.94544647 81.89972443 54.91734314 80.81776428 C54.66153323 70.94367114 54.4110635 61.06945522 54.16588497 51.1950922 C54.03964892 46.11802493 53.91150093 41.04102064 53.77905273 35.96411133 C53.65141398 31.06890036 53.52870691 26.17358881 53.40948677 21.27816582 C53.36301592 19.40612741 53.31473761 17.53413302 53.26466179 15.66218758 C53.19507847 13.04970442 53.13179833 10.43714169 53.07006836 7.82446289 C53.04777161 7.04259613 53.02547485 6.26072937 53.00250244 5.45516968 C52.96283073 3.6372124 52.97564497 1.81822697 53 0 C55.15159999 -2.15159999 60.00703022 -1.30911628 62.99609375 -1.38671875 C63.8999733 -1.41224319 64.80385284 -1.43776764 65.73512268 -1.46406555 C67.65090127 -1.51616951 69.56675454 -1.56558471 71.48266602 -1.61254883 C74.42180603 -1.68710191 77.36017028 -1.77773105 80.29882812 -1.86914062 C82.15622442 -1.91765609 84.01364602 -1.96521408 85.87109375 -2.01171875 C86.75445908 -2.04077805 87.6378244 -2.06983734 88.54795837 -2.09977722 C90.69843416 -2.14435113 92.85061522 -2.08171913 95 -2 C97 0 97 0 97.24609566 2.9322834 C97.24425207 4.19882696 97.24240849 5.46537052 97.24050903 6.77029419 C97.24221788 7.47437405 97.24392673 8.1784539 97.24568737 8.90386951 C97.24899452 11.27471937 97.23795865 13.64528928 97.22705078 16.01611328 C97.22648693 17.71096795 97.22680271 19.40582311 97.22793579 21.10067749 C97.22851133 25.71202472 97.2167246 30.32326862 97.20278788 34.93459177 C97.19031391 39.74991747 97.18911266 44.56524535 97.18673706 49.38058472 C97.18051246 58.50369422 97.16408843 67.62675598 97.14403808 76.74984443 C97.12170952 87.13420892 97.11069332 97.51857565 97.10064721 107.90295815 C97.07972302 129.26866545 97.04452806 150.63432972 97 172 C95.90645454 172.04003899 95.90645454 172.04003899 94.79081726 172.08088684 C91.42689749 172.204859 88.06305952 172.33093421 84.69921875 172.45703125 C83.55287964 172.49896606 82.40654053 172.54090088 81.22546387 172.58410645 C74.89299874 172.82304623 68.57319105 173.12297821 62.25117493 173.56077576 C52.544052 174.06520043 52.544052 174.06520043 48.53125 171.296875 C46.59597514 168.64027043 45.34059572 166.00055772 44 163 C42.6049944 160.62876241 41.19007823 158.28058439 39.75 155.9375 C38.9675242 154.62312481 38.18629804 153.30800496 37.40625 151.9921875 C29.00767494 137.96058758 19.70616626 124.4467336 10.72875977 110.78149414 C4.44465439 101.21411114 -1.80865784 91.62775455 -8 82 C-8.10411888 91.49161552 -7.82379833 100.93911599 -7.41384697 110.41881561 C-7.30618686 112.91518477 -7.20239986 115.41168937 -7.09962463 117.90826416 C-6.80731711 124.99506502 -6.50894673 132.0816022 -6.20629883 139.16796875 C-6.02039767 143.5269693 -5.83947132 147.886153 -5.66166878 152.24549103 C-5.59303881 153.90265301 -5.52244002 155.55973464 -5.44985771 157.21672821 C-5.34919448 159.51638923 -5.25480071 161.81622661 -5.16186523 164.11621094 C-5.10634995 165.4249115 -5.05083466 166.73361206 -4.99363708 168.08197021 C-5 171 -5 171 -6 172 C-7.62850086 172.15869864 -9.26351622 172.25134685 -10.8984375 172.31640625 C-11.92710938 172.35846191 -12.95578125 172.40051758 -14.015625 172.44384766 C-15.12421875 172.48300293 -16.2328125 172.5221582 -17.375 172.5625 C-18.49648437 172.6042334 -19.61796875 172.6459668 -20.7734375 172.68896484 C-27.84864613 172.93519014 -34.92046415 173.10216279 -42 173.125 C-43.19955322 173.13188843 -43.19955322 173.13188843 -44.42333984 173.13891602 C-49.87620059 173.12379941 -49.87620059 173.12379941 -51 172 C-51.08372575 169.12123776 -51.1025956 166.26634763 -51.08007812 163.38769531 C-51.07727341 162.48332481 -51.07446869 161.57895432 -51.07157898 160.64717865 C-51.06528369 158.66975434 -51.05690409 156.69233587 -51.04673767 154.71492767 C-51.02018302 149.33667 -51.01194935 143.95839076 -51.00390625 138.58007812 C-51.00204063 137.45913631 -51.00017502 136.3381945 -50.99825287 135.18328476 C-50.98578411 123.42854098 -51.09019542 111.67580643 -51.21875 99.921875 C-51.22982788 98.88787064 -51.24090576 97.85386627 -51.25231934 96.78852844 C-51.32000613 90.49814704 -51.39103944 84.20780779 -51.46356201 77.91748047 C-52.04172033 27.65935001 -52.04172033 27.65935001 -52.09375 10.578125 C-52.1002356 9.4815155 -52.10672119 8.38490601 -52.11340332 7.25506592 C-52.11400757 6.28820862 -52.11461182 5.32135132 -52.11523438 4.32519531 C-52.11728882 3.50319641 -52.11934326 2.68119751 -52.12145996 1.83428955 C-52 0 -52 0 -51 -1 C-49.54907371 -1.13266131 -48.09197315 -1.1987673 -46.63549805 -1.23706055 C-45.707509 -1.26346115 -44.77951996 -1.28986176 -43.82341003 -1.31706238 C-42.81305191 -1.34004898 -41.80269379 -1.36303558 -40.76171875 -1.38671875 C-39.72940628 -1.41224319 -38.69709381 -1.43776764 -37.63349915 -1.46406555 C-35.44363392 -1.51618576 -33.25370288 -1.56559889 -31.0637207 -1.61254883 C-27.71202787 -1.68695549 -24.36102984 -1.77764611 -21.00976562 -1.86914062 C-18.88543936 -1.9176705 -16.76109062 -1.96522832 -14.63671875 -2.01171875 C-13.63243332 -2.04077805 -12.62814789 -2.06983734 -11.59342957 -2.09977722 C-10.18726128 -2.12519341 -10.18726128 -2.12519341 -8.75268555 -2.15112305 C-7.5181086 -2.17990791 -7.5181086 -2.17990791 -6.2585907 -2.20927429 C-3.6807185 -1.97041633 -2.16718404 -1.40811949 0 0 Z " fill="#0055A0" transform="translate(1423,439)"/>
<path d="M0 0 C1.37426758 1.79882812 1.37426758 1.79882812 2.64453125 4.03125 C3.14452637 4.8871875 3.64452148 5.743125 4.15966797 6.625 C4.70510254 7.57375 5.25053711 8.5225 5.8125 9.5 C11.97697279 19.91901635 18.56824124 29.99103383 25.375 40 C25.86790527 40.72526886 26.36081055 41.45053772 26.86865234 42.19778442 C35.04862793 54.22108255 43.31428162 66.18521307 51.66918945 78.08764648 C52.79923939 79.7115102 53.902598 81.353897 55 83 C55.17025071 72.05245878 54.87677757 61.13118036 54.4921875 50.19140625 C54.44258072 48.75483425 54.39304104 47.31825993 54.34356689 45.88168335 C54.13695967 39.91688053 53.92807608 33.952198 53.70361328 27.98803711 C53.56513401 24.29883853 53.4365825 20.60940968 53.31460953 16.91963005 C53.26651177 15.52281275 53.21464784 14.12611981 53.15893173 12.72958565 C53.08207057 10.79476501 53.0189554 8.85941286 52.95654297 6.92407227 C52.91657196 5.82507095 52.87660095 4.72606964 52.8354187 3.59376526 C53 1 53 1 55 -1 C58.06940534 -1.25847029 61.05448023 -1.39809836 64.12890625 -1.44921875 C65.03374252 -1.47095657 65.9385788 -1.4926944 66.87083435 -1.51509094 C68.78480134 -1.55903741 70.69888245 -1.59823048 72.61303711 -1.63305664 C75.55423977 -1.68734753 78.49474449 -1.75749913 81.43554688 -1.83007812 C83.29164637 -1.87072907 85.14776599 -1.91047355 87.00390625 -1.94921875 C88.33199059 -1.98036018 88.33199059 -1.98036018 89.68690491 -2.01213074 C91.79097864 -2.04737666 93.89583446 -2.02925606 96 -2 C97 -1 97 -1 97.12304783 1.82485294 C97.12212604 3.09969264 97.12120424 4.37453234 97.12025452 5.68800354 C97.12153615 6.74896701 97.12153615 6.74896701 97.12284368 7.8313641 C97.12450055 10.21906282 97.11897377 12.60669243 97.11352539 14.99438477 C97.11324354 16.69894407 97.11340122 18.40350351 97.1139679 20.10806274 C97.11425594 24.750428 97.10835806 29.39276765 97.10139394 34.03512692 C97.09516159 38.88115895 97.0945567 43.72719151 97.09336853 48.57322693 C97.09025486 57.75655964 97.082041 66.9398805 97.07201904 76.12320799 C97.060859 86.57526771 97.05534773 97.02732798 97.05032361 107.47939217 C97.03985841 128.98626807 97.02225829 150.49313329 97 172 C96.30191727 172.02374695 95.60383453 172.0474939 94.88459778 172.07196045 C91.65857288 172.18421288 88.43281912 172.30301281 85.20703125 172.421875 C84.10943481 172.45909668 83.01183838 172.49631836 81.88098145 172.53466797 C75.60842849 172.77080024 69.42744016 173.20519775 63.19981384 173.9995575 C58.94701778 174.4235017 55.03038774 174.54353349 51 173 C45.89474373 168.73094949 43.16815107 162.49811091 40.31103516 156.61962891 C38.34706242 152.69534074 36.00532296 149.05635617 33.625 145.375 C33.15650635 144.6310498 32.6880127 143.88709961 32.20532227 143.12060547 C26.03336184 133.34333971 19.54605081 123.7678018 13.09228516 114.17529297 C8.0084161 106.60429664 3.04279288 98.97975208 -1.73416138 91.21052551 C-3.6984527 88.02547614 -5.7299073 84.97293324 -8 82 C-7.97716446 82.67253815 -7.95432892 83.34507629 -7.93080139 84.03799438 C-7.86073909 86.10158253 -7.79068707 88.16517103 -7.72064209 90.22875977 C-7.63746354 92.67895619 -7.55425136 95.12915147 -7.4710083 97.5793457 C-7.24222724 104.31637102 -7.01425727 111.0534221 -6.7878418 117.79052734 C-6.69718255 120.48535425 -6.60643541 123.18017818 -6.515625 125.875 C-6.49323069 126.53981007 -6.47083637 127.20462013 -6.44776344 127.88957596 C-6.1815693 135.78107993 -5.90595714 143.67208138 -5.609375 151.5625 C-5.55709096 152.9848589 -5.50491871 154.40722192 -5.45288086 155.82958984 C-5.36155125 158.2988247 -5.26622403 160.76791604 -5.16625977 163.23681641 C-5.1090979 164.80955322 -5.1090979 164.80955322 -5.05078125 166.4140625 C-4.99917847 167.72818115 -4.99917847 167.72818115 -4.9465332 169.06884766 C-5 171 -5 171 -6 172 C-7.54364633 172.15853054 -9.09413225 172.25129951 -10.64453125 172.31640625 C-11.62284912 172.35846191 -12.60116699 172.40051758 -13.60913086 172.44384766 C-14.66624268 172.48300293 -15.72335449 172.5221582 -16.8125 172.5625 C-17.88443604 172.6042334 -18.95637207 172.6459668 -20.06079102 172.68896484 C-27.1861615 172.94676825 -34.30749585 173.10330428 -41.4375 173.125 C-42.28868408 173.12959229 -43.13986816 173.13418457 -44.0168457 173.13891602 C-49.87627487 173.12372513 -49.87627487 173.12372513 -51 172 C-51.09005507 169.5964979 -51.11489007 167.22197165 -51.09765625 164.81835938 C-51.09621581 164.05916765 -51.09477537 163.29997593 -51.09329128 162.5177784 C-51.08949511 160.84772862 -51.08337515 159.17768297 -51.07528496 157.50764847 C-51.0622922 154.80045211 -51.05539494 152.09329956 -51.05006409 149.38607788 C-51.04182675 145.47333817 -51.03117723 141.56061631 -51.01858521 137.64788818 C-50.98610478 127.29913173 -50.97101827 116.95036613 -50.96484375 106.6015625 C-50.96417341 105.54490513 -50.96350307 104.48824776 -50.96281242 103.39957047 C-50.95723826 87.91841239 -51.05357997 72.4407844 -51.25390625 56.9609375 C-51.26613598 56.01474297 -51.27836571 55.06854843 -51.29096603 54.09368134 C-51.41024017 45.01787844 -51.54382032 35.94234132 -51.69097996 26.86694908 C-51.74398734 23.55714399 -51.79356377 20.24729214 -51.84269524 16.93742752 C-51.87806457 14.67111831 -51.9192747 12.40496632 -51.96083069 10.13876343 C-51.98141006 8.79417337 -52.00172645 7.44957924 -52.02172852 6.10498047 C-52.04171402 4.94271942 -52.06169952 3.78045837 -52.08229065 2.58297729 C-52 0 -52 0 -51 -1 C-49.54907371 -1.13266131 -48.09197315 -1.1987673 -46.63549805 -1.23706055 C-45.707509 -1.26346115 -44.77951996 -1.28986176 -43.82341003 -1.31706238 C-42.81305191 -1.34004898 -41.80269379 -1.36303558 -40.76171875 -1.38671875 C-39.72940628 -1.41224319 -38.69709381 -1.43776764 -37.63349915 -1.46406555 C-35.44363392 -1.51618576 -33.25370288 -1.56559889 -31.0637207 -1.61254883 C-27.71202787 -1.68695549 -24.36102984 -1.77764611 -21.00976562 -1.86914062 C-18.88543936 -1.9176705 -16.76109062 -1.96522832 -14.63671875 -2.01171875 C-13.63243332 -2.04077805 -12.62814789 -2.06983734 -11.59342957 -2.09977722 C-10.18726128 -2.12519341 -10.18726128 -2.12519341 -8.75268555 -2.15112305 C-7.5181086 -2.17990791 -7.5181086 -2.17990791 -6.2585907 -2.20927429 C-3.72077706 -1.97412803 -2.16024451 -1.33197941 0 0 Z " fill="#0055A0" transform="translate(2651,439)"/>
<path d="M0 0 C1.5126337 -0.00736711 3.02525609 -0.01791974 4.5378418 -0.03204346 C22.37678407 -0.18461402 42.91343349 -0.08938029 57.12463379 12.17623901 C66.2410416 21.99237111 67.61229029 32.69757564 67.40197754 45.57858276 C67.01789341 54.88641251 63.82453048 63.57591616 57.12463379 70.17623901 C52.38990346 73.94578355 47.32211813 77.09110125 42.12463379 80.17623901 C42.89807129 80.39537964 43.67150879 80.61452026 44.46838379 80.84030151 C55.01329397 84.05075684 62.76362196 89.02219408 69.12463379 98.17623901 C75.40555999 110.64292587 75.99674763 125.11753282 72.08947754 138.44186401 C67.31073505 151.98485893 58.66927757 161.75592212 45.89807129 168.32077026 C32.19311594 174.4398724 17.16070379 174.64580936 2.44104004 174.72311401 C0.60541114 174.74255498 -1.23020633 174.76310413 -3.06581116 174.78469849 C-6.87348235 174.82664974 -10.68107365 174.85948088 -14.4888916 174.88473511 C-19.37833958 174.91732869 -24.267426 174.96705012 -29.15666103 175.02265549 C-32.92853585 175.06479465 -36.70044639 175.10131239 -40.47239876 175.13574982 C-42.27741508 175.15230127 -44.08242235 175.16987127 -45.88741875 175.18846893 C-48.39047543 175.21278291 -50.89348049 175.23028572 -53.39660645 175.24557495 C-54.14398575 175.25380783 -54.89136505 175.26204071 -55.66139221 175.27052307 C-57.3996538 175.2774697 -59.13800202 175.23251738 -60.87536621 175.17623901 C-61.87536621 174.17623901 -61.87536621 174.17623901 -61.99562073 171.90091324 C-61.99340012 170.8849696 -61.9911795 169.86902596 -61.9888916 168.82229614 C-61.98882111 167.65960709 -61.98875061 166.49691803 -61.98867798 165.29899597 C-61.98351166 164.01099594 -61.97834534 162.72299591 -61.97302246 161.39596558 C-61.97110418 160.03402257 -61.96963996 158.67207885 -61.96859741 157.31013489 C-61.96542521 154.36470503 -61.95913813 151.41930352 -61.95053101 148.47388458 C-61.93698817 143.78635372 -61.93110709 139.09883231 -61.9263916 134.4112854 C-61.91432986 123.57646091 -61.89253991 112.74166006 -61.87016296 101.90685272 C-61.84983511 92.04985346 -61.83175383 82.19286372 -61.82194805 72.33584762 C-61.81784729 68.45550477 -61.81168517 64.57519094 -61.80020142 60.69486237 C-61.78736132 56.32309347 -61.77963344 51.95134689 -61.77770996 47.57955933 C-61.77734552 46.8880555 -61.77698109 46.19655168 -61.77660561 45.48409319 C-61.78046704 33.92326552 -62.09306779 22.3891106 -62.61070251 10.83971024 C-62.65880569 9.7110693 -62.70690887 8.58242836 -62.75646973 7.41958618 C-62.80320328 6.4267802 -62.84993683 5.43397423 -62.89808655 4.41108322 C-62.87536621 2.17623901 -62.87536621 2.17623901 -61.87536621 1.17623901 C-59.06151212 1.0141977 -56.27016084 0.91593277 -53.45349121 0.85983276 C-52.57822281 0.83891571 -51.70295441 0.81799866 -50.80116272 0.79644775 C-47.9093271 0.72960852 -45.01740752 0.67094826 -42.12536621 0.61373901 C-40.64742081 0.58296768 -40.64742081 0.58296768 -39.13961792 0.55157471 C-26.09459621 0.28256567 -13.04784725 0.05738001 0 0 Z M-8.87536621 32.17623901 C-8.87536621 44.38623901 -8.87536621 56.59623901 -8.87536621 69.17623901 C2.14756527 69.67884408 2.14756527 69.67884408 11.12463379 65.17623901 C16.66979373 58.20924319 16.7085255 51.79660396 16.12463379 43.17623901 C14.52419321 38.37491727 12.29927443 35.99412145 8.12463379 33.17623901 C2.73946898 31.38118408 -3.19890409 32.17623901 -8.87536621 32.17623901 Z M-8.87536621 103.17623901 C-8.87536621 116.37623901 -8.87536621 129.57623901 -8.87536621 143.17623901 C2.13087234 143.42288076 2.13087234 143.42288076 11.79650879 138.78170776 C17.19951282 132.50468838 18.19745604 126.28031566 18.12463379 118.17623901 C17.10942254 112.5880041 14.65372168 108.67598874 10.12463379 105.17623901 C3.54832372 102.35782041 -1.17764088 103.17623901 -8.87536621 103.17623901 Z " fill="#0055A0" transform="translate(653.8753662109375,436.8237609863281)"/>
<path d="M0 0 C17.68504458 14.64183886 24.22483204 37.34992395 26.75 59.375 C28.48417028 86.61416242 27.50658068 118.8401595 8.5625 140.5 C7.06356244 142.02188048 5.54334812 143.5231755 4 145 C3.31421875 145.70511719 2.6284375 146.41023437 1.921875 147.13671875 C-12.36193211 161.02375344 -32.34444175 164.97665018 -51.60644531 165.0390625 C-72.78746267 164.69339106 -91.81818198 158.67327074 -107.4609375 143.796875 C-126.45527415 122.87388263 -129.22544625 92.97622973 -128 66 C-126.58611792 43.08823722 -120.41890037 18.14044896 -103 2 C-95.32785333 -4.10682278 -87.37356044 -8.92768906 -78 -12 C-77.03835937 -12.31839844 -76.07671875 -12.63679688 -75.0859375 -12.96484375 C-49.97395903 -19.72576103 -20.92049235 -15.5643422 0 0 Z M-63.125 27 C-73.01576753 39.35051338 -72.35124967 57.05610993 -72.31567383 72.02563477 C-72.31251789 74.79678889 -72.33603207 77.56686796 -72.36132812 80.33789062 C-72.41308059 94.74713017 -72.21193791 110.8966828 -62.66015625 122.6484375 C-58.81794562 126.33099948 -54.20813143 127.77894179 -49 128 C-43.46571116 127.20362692 -39.69023594 124.509653 -36.3125 120.140625 C-28.55500391 107.48851827 -28.65027962 92.48696013 -28.68432617 78.15966797 C-28.68746967 75.40160948 -28.66402136 72.64464408 -28.63867188 69.88671875 C-28.36116691 46.04775799 -28.36116691 46.04775799 -38.55078125 25.32421875 C-42.78014374 21.59860167 -46.36221478 20.68061584 -51.94921875 20.79296875 C-56.72199346 21.27479172 -59.9019555 23.63997611 -63.125 27 Z " fill="#0055A0" transform="translate(2556,450)"/>
<path d="M0 0 C16.35834375 13.54125129 23.53084727 35.54377396 26 56 C26.16153195 58.83722241 26.20972461 61.67033319 26.23828125 64.51171875 C26.24802979 65.31399902 26.25777832 66.1162793 26.26782227 66.94287109 C26.54520421 95.64912837 25.23628754 122.46678784 4.48046875 144.61328125 C-11.43774165 159.9298585 -32.38471111 165.40766279 -54 165 C-75.94090908 164.04286162 -94.75823829 157.13833593 -110 141 C-128.88381946 119.01585198 -129.63542164 86.36146196 -127.79785156 58.98876953 C-125.6141152 36.17490494 -117.70208777 14.02559554 -99.59375 -0.99609375 C-71.28328096 -21.82579011 -27.97701257 -20.52829924 0 0 Z M-65.3125 29.0625 C-77.82932398 50.05955703 -75.23928652 85.5504091 -70.22265625 108.56640625 C-68.07217038 115.94081915 -64.68969907 121.77450562 -58.2734375 126.1875 C-54.62040583 128.05571711 -51.06671634 128.4392616 -47.046875 127.68359375 C-40.94521579 125.64582588 -37.07618026 121.86972434 -34.1875 116.1875 C-29.16240837 103.25082921 -28.47697679 89.46928431 -28.625 75.75 C-28.62898804 74.99496185 -28.63297607 74.23992371 -28.63708496 73.46200562 C-28.6942779 64.19247273 -28.9778245 55.00817176 -30.25 45.8125 C-30.35908691 45.01360352 -30.46817383 44.21470703 -30.58056641 43.39160156 C-32.09660685 34.24767217 -36.00640915 27.91389553 -43.3125 22.1875 C-51.83924614 18.41986798 -60.08093807 21.85457024 -65.3125 29.0625 Z " fill="#0055A0" transform="translate(1328,450)"/>
<path d="M0 0 C0.79374527 -0.0049649 1.58749054 -0.00992981 2.4052887 -0.01504517 C5.05006771 -0.02972777 7.6947864 -0.03648501 10.33959961 -0.04199219 C12.18314108 -0.04774634 14.02668255 -0.05350404 15.870224 -0.05926514 C19.75170165 -0.06979761 23.63315849 -0.07562302 27.51464844 -0.07910156 C32.44670031 -0.08453811 37.3784693 -0.10845106 42.31043339 -0.13707352 C46.12931561 -0.15588187 49.94813284 -0.16091544 53.76705742 -0.16243744 C55.58201044 -0.16543256 57.39696321 -0.17335243 59.21187019 -0.18662262 C77.05200148 -0.30756378 94.97123144 0.41342664 108.68334961 13.29785156 C120.10664265 25.48780857 121.06340709 42.96802102 120.56567383 58.82128906 C119.81671284 71.68516378 114.75396004 83.27031458 105.42944336 92.16113281 C103.15879477 93.98030741 100.87013814 95.56720969 98.42944336 97.16113281 C99.07694957 101.14476343 100.30931839 104.52965918 101.91381836 108.22753906 C102.43073242 109.4222583 102.94764648 110.61697754 103.48022461 111.84790039 C104.04620378 113.13999836 104.61262061 114.43190469 105.17944336 115.72363281 C105.60845947 116.70715225 105.60845947 116.70715225 106.04614258 117.71054077 C110.39640136 127.6823496 114.86164211 137.59967295 119.42944336 147.47363281 C119.95634766 148.61582275 120.48325195 149.7580127 121.02612305 150.93481445 C123.65744606 156.57702671 126.38315352 162.03801393 129.64428711 167.34545898 C130.42944336 169.16113281 130.42944336 169.16113281 129.42944336 172.16113281 C121.22479059 172.90959845 113.03719919 173.42113152 104.80444336 173.72363281 C103.68376465 173.76609131 102.56308594 173.8085498 101.40844727 173.85229492 C92.07853417 174.18364885 82.7638458 174.26967238 73.42944336 174.16113281 C70.09515427 167.12648106 67.5430405 159.92548069 65.10131836 152.54003906 C64.70744934 151.35893051 64.31358032 150.17782196 63.90777588 148.96092224 C62.87205534 145.85084001 61.84055146 142.73939922 60.81066895 139.62738037 C59.96517748 137.07741671 59.11407226 134.52934194 58.26292038 131.98126316 C57.24758671 128.93939586 56.23707986 125.89592811 55.22631836 122.85253906 C54.84513855 121.70991104 54.46395874 120.56728302 54.07122803 119.39002991 C53.72376526 118.33810959 53.37630249 117.28618927 53.01831055 116.20239258 C52.7106073 115.27467545 52.40290405 114.34695831 52.08587646 113.39112854 C51.42944336 111.16113281 51.42944336 111.16113281 51.42944336 109.16113281 C49.11944336 109.16113281 46.80944336 109.16113281 44.42944336 109.16113281 C44.45672012 109.948181 44.48399689 110.73522919 44.51210022 111.54612732 C44.76771281 118.94787322 45.01842002 126.34976101 45.26355839 133.75186062 C45.38977395 137.55773594 45.51791437 141.3635265 45.65039062 145.16918945 C45.77806506 148.83891599 45.90076586 152.5087776 46.01995659 156.17878914 C46.06641374 157.58194066 46.11469104 158.9850331 46.16478157 160.38805962 C46.23440251 162.34667789 46.29706779 164.30553972 46.359375 166.2644043 C46.3971254 167.38137192 46.43487579 168.49833954 46.47377014 169.64915466 C46.42944336 172.16113281 46.42944336 172.16113281 45.42944336 173.16113281 C43.56741083 173.32077899 41.69952795 173.4127611 39.83178711 173.47753906 C38.64810547 173.51959473 37.46442383 173.56165039 36.24487305 173.60498047 C34.96515625 173.64413574 33.68543945 173.68329102 32.36694336 173.72363281 C31.07046875 173.76536621 29.77399414 173.80709961 28.43823242 173.85009766 C19.85254584 174.10705993 11.26921111 174.26435649 2.67944336 174.28613281 C1.14598267 174.29302124 1.14598267 174.29302124 -0.41845703 174.30004883 C-1.35036865 174.29803467 -2.28228027 174.29602051 -3.24243164 174.29394531 C-4.05808594 174.29281738 -4.87374023 174.29168945 -5.71411133 174.29052734 C-7.57055664 174.16113281 -7.57055664 174.16113281 -8.57055664 173.16113281 C-8.63511457 171.15279837 -8.62736878 169.14212211 -8.59228516 167.13305664 C-8.57219894 165.83290115 -8.55211273 164.53274567 -8.53141785 163.19319153 C-8.5041463 161.75151482 -8.47682659 160.30983902 -8.44946289 158.86816406 C-8.42501595 157.38161529 -8.40108403 155.89505797 -8.37763977 154.40849304 C-8.32703519 151.24412274 -8.27366822 148.07981609 -8.21820068 144.91552734 C-8.08921871 137.51408415 -7.97907368 130.11235244 -7.86862946 122.71061325 C-7.84436409 121.08451516 -7.81996496 119.45841907 -7.79543304 117.83232498 C-7.3708431 89.6476463 -7.52422629 61.51923735 -8.21459961 33.33886719 C-8.4220472 24.84011432 -8.62125709 16.34226022 -8.66430664 7.84082031 C-8.67139648 6.56706543 -8.67848633 5.29331055 -8.68579102 3.98095703 C-8.46085004 -1.52342478 -4.4744107 0.0066097 0 0 Z M45.42944336 35.16113281 C44.66015311 48.8435094 44.29696985 62.45748466 44.42944336 76.16113281 C50.92386059 76.33757466 54.99655798 75.907148 60.42944336 72.16113281 C66.09595242 66.74099371 67.4248719 61.30692517 67.74194336 53.72363281 C67.5533364 47.29990161 66.00328197 42.19055628 62.05444336 37.09863281 C57.39683529 33.62919007 50.90922467 34.79527204 45.42944336 35.16113281 Z " fill="#0055A0" transform="translate(1790.570556640625,437.8388671875)"/>
<path d="M0 0 C0.00238835 0.61953741 0.00477671 1.23907482 0.00723743 1.87738609 C0.06649823 16.98582675 0.14211863 32.09409066 0.23571491 47.20235252 C0.28058809 54.50874764 0.32002202 61.81509493 0.34643555 69.12158203 C0.3694846 75.49351068 0.40295901 81.86528692 0.44870156 88.23709452 C0.47254126 91.60768457 0.49133033 94.97812455 0.49761391 98.34879684 C0.50727353 102.12126672 0.53535697 105.89319227 0.56762695 109.66552734 C0.56619186 110.77036469 0.56475677 111.87520203 0.5632782 113.01351929 C0.66092667 121.11528352 1.82387354 128.90677065 6 136 C8.45704762 137.23290201 8.45704762 137.23290201 11 138 C11.66 138.33 12.32 138.66 13 139 C18.5103035 139.61449454 23.79204111 139.66818738 28.53125 136.52734375 C35.87479808 128.89083498 35.15105207 116.27572192 35.18945312 106.48095703 C35.19774643 105.34037338 35.20603973 104.19978973 35.21458435 103.02464294 C35.2319333 100.5572864 35.24711399 98.08991386 35.26036072 95.62253189 C35.28143557 91.7234803 35.30845059 87.82450989 35.33703613 83.92550659 C35.40203572 74.95416862 35.4577449 65.98277771 35.51302338 57.01137543 C35.56788392 48.1167454 35.6264802 39.22216161 35.69187927 30.32760239 C35.71853877 26.47583091 35.73929521 22.62405533 35.7598877 18.77224731 C35.77647992 16.4290547 35.79335079 14.08586404 35.81054688 11.74267578 C35.81473129 10.66323196 35.81891571 9.58378815 35.82322693 8.47163391 C35.83157059 7.49591934 35.83991425 6.52020477 35.84851074 5.5149231 C35.85366447 4.66213839 35.85881821 3.80935368 35.86412811 2.93072701 C36 1 36 1 37 0 C38.40568302 -0.12726494 39.81746862 -0.18821449 41.22851562 -0.22119141 C42.12614624 -0.24436432 43.02377686 -0.26753723 43.9486084 -0.29141235 C44.92463013 -0.3112619 45.90065186 -0.33111145 46.90625 -0.3515625 C47.9012854 -0.37471527 48.8963208 -0.39786804 49.92150879 -0.42172241 C52.02981327 -0.46943554 54.13817528 -0.51466044 56.24658203 -0.55761719 C59.48621652 -0.62471452 62.72547534 -0.70244523 65.96484375 -0.78125 C68.00779849 -0.82616265 70.050767 -0.87045444 72.09375 -0.9140625 C73.06977173 -0.93796051 74.04579346 -0.96185852 75.0513916 -0.98648071 C75.94902222 -1.0033493 76.84665283 -1.0202179 77.77148438 -1.03759766 C78.9627594 -1.06305161 78.9627594 -1.06305161 80.17810059 -1.08901978 C82 -1 82 -1 83 0 C83.10325818 2.03301712 83.1308569 4.06983198 83.1328125 6.10546875 C83.13422241 6.77957794 83.13563232 7.45368713 83.13708496 8.14822388 C83.1392957 10.49469539 83.13270385 12.84104089 83.125 15.1875 C83.1234491 16.01269135 83.12189819 16.83788269 83.12030029 17.68807983 C83.10448196 25.125564 83.05538329 32.56271672 83 40 C82.99202393 41.07704948 82.99202393 41.07704948 82.98388672 42.17585754 C82.90180191 53.13557156 82.79964401 64.09497806 82.68060303 75.05435181 C82.64293705 78.53803075 82.60913381 82.02171343 82.57867432 85.50546265 C82.07682368 141.63465156 82.07682368 141.63465156 70 157 C69.47148437 157.67804688 68.94296875 158.35609375 68.3984375 159.0546875 C57.33420223 171.5811565 40.15375613 175.53129256 24.19555664 176.65380859 C1.87252289 177.909757 -20.92700629 176.06002484 -38.8125 161.25 C-43.28597517 157.04014033 -46.29864959 152.49357194 -49 147 C-49.58587891 145.82244141 -49.58587891 145.82244141 -50.18359375 144.62109375 C-57.33274379 127.88736893 -55.34335925 106.69612487 -55.44921875 88.92578125 C-55.47052203 86.37842767 -55.49249154 83.83107959 -55.51509094 81.28373718 C-55.56010527 75.9934685 -55.5992362 70.70319232 -55.63305664 65.4128418 C-55.67221572 59.2968662 -55.72156568 53.18103691 -55.77638692 47.06518298 C-55.82929835 41.14916985 -55.87639839 35.23312304 -55.92057228 29.31703758 C-55.93965116 26.80866693 -55.96001276 24.30030571 -55.98166466 21.79195595 C-56.01064513 18.31224405 -56.03304523 14.83255442 -56.0534668 11.3527832 C-56.06327072 10.31246445 -56.07307465 9.27214569 -56.08317566 8.20030212 C-56.08732483 7.26020294 -56.091474 6.32010376 -56.0957489 5.35151672 C-56.1014474 4.53036534 -56.1071459 3.70921396 -56.11301708 2.86317921 C-56 1 -56 1 -55 0 C-53.35432427 -0.12811011 -51.70330685 -0.18837093 -50.05297852 -0.22119141 C-48.99840958 -0.24436432 -47.94384064 -0.26753723 -46.85731506 -0.29141235 C-45.1355027 -0.32118668 -45.1355027 -0.32118668 -43.37890625 -0.3515625 C-41.62355812 -0.38629166 -41.62355812 -0.38629166 -39.83274841 -0.42172241 C-37.35200471 -0.46944671 -34.87121186 -0.51467017 -32.39038086 -0.55761719 C-28.58233556 -0.62465083 -24.77461388 -0.70240811 -20.96679688 -0.78125 C-18.56251202 -0.82616894 -16.15821535 -0.87046075 -13.75390625 -0.9140625 C-12.03513023 -0.94990952 -12.03513023 -0.94990952 -10.28163147 -0.98648071 C-9.22391037 -1.0033493 -8.16618927 -1.0202179 -7.07641602 -1.03759766 C-6.14233414 -1.05456696 -5.20825226 -1.07153625 -4.24586487 -1.08901978 C-2 -1 -2 -1 0 0 Z " fill="#0055A0" transform="translate(1985,438)"/>
<path d="M0 0 C3.47542026 1.21421951 5.74950882 3.98429417 8.29109365 6.54936534 C8.91183332 7.16401391 9.53257299 7.77866248 10.17212296 8.41193676 C12.25599601 10.47912373 14.32895357 12.55692132 16.40210134 14.63486034 C17.8913722 16.11679431 19.38126575 17.59810274 20.87173635 19.07883006 C24.92195933 23.10679234 28.96244293 27.14439214 33.00060278 31.18444401 C36.36815153 34.55211221 39.74002587 37.91543304 43.11180305 41.27886677 C51.06215815 49.20997261 59.0042936 57.14924553 66.94165212 65.09335643 C75.14227343 73.30062519 83.35755436 81.49300989 91.5800091 89.67839968 C98.63016836 96.69792394 105.67068837 103.72701502 112.70359612 110.76382351 C116.90814943 114.97045015 121.11643984 119.17316498 125.33420926 123.36654407 C129.29742506 127.30759695 133.24853264 131.26039125 137.19046575 135.22272807 C138.64265182 136.67834236 140.09915624 138.1296625 141.56015378 139.57643253 C143.54696672 141.54521986 145.51790361 143.52861651 147.48542958 145.5166505 C148.36700592 146.37945006 148.36700592 146.37945006 149.26639187 147.25967991 C150.84680063 148.87586242 150.84680063 148.87586242 153.07080251 151.72348338 C152.59410718 155.49420447 150.96607274 157.19938109 148.30601674 159.8490327 C147.49688329 160.66229015 146.68774984 161.47554759 145.85409719 162.3134492 C144.96002156 163.196739 144.06594594 164.08002879 143.14477712 164.99008495 C142.1981845 165.93583126 141.25225216 166.88223884 140.30693227 167.82925731 C137.73936789 170.39768292 135.16265453 172.95674965 132.5842157 175.51425201 C129.89092348 178.18879888 127.20611646 180.8718357 124.52040273 183.55398875 C119.43360808 188.63145665 114.33921399 193.70122838 109.24205434 198.76828867 C103.43937768 204.53744097 97.64521054 210.31510739 91.85174721 216.0935095 C79.93421748 227.97967593 68.00603165 239.85508897 56.07080251 251.72348338 C53.05422737 250.27762835 50.950869 248.84878116 48.58740407 246.46713573 C47.59683004 245.4763351 47.59683004 245.4763351 46.5862444 244.4655183 C45.88505483 243.75400615 45.18386525 243.042494 44.46142751 242.30942088 C43.73461782 241.5797813 43.00780813 240.85014171 42.2589739 240.09839183 C39.94151053 237.76974458 37.63110301 235.43423512 35.32080251 233.09848338 C33.74964807 231.51729686 32.1780388 229.93656214 30.60595876 228.35629588 C26.75561598 224.48391648 22.91104134 220.60588167 19.07080251 216.72348338 C20.68703514 212.66745624 23.57232927 209.9539281 26.62207204 206.94516307 C27.18807119 206.37887187 27.75407033 205.81258067 28.33722097 205.22912914 C30.20464971 203.363091 32.07905713 201.50423242 33.95361501 199.64535838 C35.25156662 198.35113785 36.54907667 197.05647433 37.84616262 195.76138622 C41.25795087 192.35722692 44.67570303 188.95911705 48.09472829 185.5622285 C51.58386171 182.09356932 55.06732638 178.61922755 58.55127126 175.14535838 C65.38557619 168.33249037 72.22619454 161.52599918 79.07080251 154.72348338 C77.52672819 151.05076533 75.30886752 148.71487133 72.50241262 145.91458446 C71.80156189 145.21117046 71.80156189 145.21117046 71.08655256 144.49354607 C69.52204986 142.92575301 67.95051355 141.36520848 66.37890798 139.80453807 C65.25504497 138.68123927 64.1316223 137.55749975 63.00860769 136.43335277 C59.95956673 133.38373769 56.90439597 130.34033099 53.8480981 127.2979911 C50.65477416 124.11716451 47.46710815 120.93067823 44.27884084 117.74478465 C38.24094239 111.71310388 32.1979635 105.68653975 26.15314859 99.66179138 C19.27142058 92.80241336 12.39536661 85.93735957 5.51978642 79.07182008 C-8.62356473 64.94937748 -22.77403611 50.83408771 -36.92919749 36.72348338 C-35.49386813 33.73507924 -34.0652641 31.59664639 -31.7363264 29.22421581 C-31.08870341 28.56060542 -30.44108042 27.89699504 -29.7738325 27.21327525 C-29.07486857 26.50894862 -28.37590464 25.80462199 -27.65575999 25.07895213 C-26.9356071 24.34977077 -26.2154542 23.6205894 -25.4734785 22.86931163 C-23.95136851 21.33271154 -22.42644603 19.79889303 -20.89892405 18.26767284 C-18.5575895 15.9143927 -16.23555135 13.5431095 -13.91357249 11.17074901 C-12.43295335 9.68067145 -10.95121987 8.19170016 -9.46825999 6.70395213 C-8.77334452 5.98950435 -8.07842906 5.27505656 -7.36245555 4.53895885 C-6.70852824 3.89110927 -6.05460093 3.24325969 -5.38085765 2.57577831 C-4.80953105 1.99938106 -4.23820445 1.42298381 -3.64956492 0.82911998 C-1.92919749 -0.27651662 -1.92919749 -0.27651662 0 0 Z " fill="#FFD800" transform="translate(357.9291974902153,422.27651661634445)"/>
<path d="M0 0 C7.38169635 6.25457917 7.38169635 6.25457917 10.54858398 9.43505859 C11.14867783 10.03522797 11.74877167 10.63539734 12.36705017 11.25375366 C12.98713455 11.87899933 13.60721893 12.504245 14.24609375 13.1484375 C15.23005882 14.13452499 15.23005882 14.13452499 16.23390198 15.14053345 C18.30415268 17.21632862 20.37087651 19.29559427 22.4375 21.375 C23.85067862 22.7932008 25.26408794 24.21117176 26.67773438 25.62890625 C30.12116065 29.08328777 33.56143099 32.5407837 37 36 C31.38062338 42.85907115 25.09685489 49.03009491 18.8203125 55.27734375 C17.64039553 56.45539258 16.46070142 57.63366466 15.28121948 58.81214905 C12.19610309 61.89347142 9.10799411 64.97177716 6.01922607 68.04943848 C2.85994267 71.19844034 -0.29646516 74.35032171 -3.453125 77.50195312 C-9.63262527 83.6707711 -15.8152939 89.83640129 -22 96 C-20.45592568 99.67271805 -18.23806501 102.00861205 -15.43161011 104.80889893 C-14.73075938 105.51231293 -14.73075938 105.51231293 -14.01575005 106.22993731 C-12.45124735 107.79773037 -10.87971104 109.35827491 -9.30810547 110.91894531 C-8.18424246 112.04224411 -7.06081979 113.16598363 -5.93780518 114.29013062 C-2.88876422 117.33974569 0.16640654 120.3831524 3.22270441 123.42549229 C6.41602835 126.60631887 9.60369436 129.79280516 12.79196167 132.97869873 C18.82986012 139.0103795 24.87283901 145.03694363 30.91765392 151.061692 C37.79938193 157.92107002 44.6754359 164.78612381 51.55101609 171.6516633 C65.69436724 185.77410591 79.84483862 199.88939567 94 214 C92.56467064 216.98840415 91.13606661 219.12683699 88.80712891 221.49926758 C88.15950592 222.16287796 87.51188293 222.82648834 86.84463501 223.51020813 C86.14567108 224.21453476 85.44670715 224.91886139 84.7265625 225.64453125 C84.00640961 226.37371262 83.28625671 227.10289398 82.54428101 227.85417175 C81.02217102 229.39077185 79.49724854 230.92459036 77.96972656 232.45581055 C75.62839201 234.80909068 73.30635386 237.18037388 70.984375 239.55273438 C69.50375586 241.04281194 68.02202238 242.53178323 66.5390625 244.01953125 C65.84414703 244.73397903 65.14923157 245.44842682 64.43325806 246.18452454 C63.77933075 246.83237411 63.12540344 247.48022369 62.45166016 248.14770508 C61.88033356 248.72410233 61.30900696 249.30049957 60.72036743 249.8943634 C59 251 59 251 57.07080251 250.72348338 C53.59538225 249.50926387 51.32129369 246.73918921 48.77970886 244.17411804 C48.15896919 243.55946947 47.53822952 242.94482091 46.89867955 242.31154662 C44.8148065 240.24435965 42.74184894 238.16656206 40.66870117 236.08862305 C39.17943031 234.60668908 37.68953676 233.12538064 36.19906616 231.64465332 C32.14884318 227.61669105 28.10835958 223.57909124 24.07019973 219.53903937 C20.70265098 216.17137117 17.33077664 212.80805034 13.95899945 209.44461662 C6.00864436 201.51351077 -1.93349109 193.57423785 -9.87084961 185.63012695 C-18.07147092 177.4228582 -26.28675185 169.23047349 -34.50920659 161.0450837 C-41.55936585 154.02555944 -48.59988586 146.99646836 -55.63279361 139.95965987 C-59.83734692 135.75303324 -64.04563733 131.5503184 -68.26340675 127.35693932 C-72.22662255 123.41588643 -76.17773013 119.46309214 -80.11966324 115.50075531 C-81.57184931 114.04514103 -83.02835373 112.59382088 -84.48935127 111.14705086 C-86.47616421 109.17826353 -88.4471011 107.19486687 -90.41462708 105.20683289 C-91.29620341 104.34403333 -91.29620341 104.34403333 -92.19558936 103.46380347 C-93.77599812 101.84762096 -93.77599812 101.84762096 -96 99 C-95.52408652 95.24778198 -93.92081588 93.54958736 -91.2731781 90.91241455 C-90.07209915 89.70514961 -90.07209915 89.70514961 -88.84675598 88.47349548 C-87.9620311 87.59955643 -87.07730621 86.72561737 -86.16577148 85.82519531 C-85.23903625 84.898022 -84.31230103 83.97084869 -83.35748291 83.01557922 C-80.8167767 80.47401182 -78.26692297 77.94180407 -75.71534228 75.41116047 C-73.05007701 72.7646412 -70.39329753 70.10963133 -67.73561096 67.45550537 C-62.70194012 62.43116108 -57.66067038 57.41451344 -52.61663443 52.40057731 C-46.87441588 46.69188372 -41.14070735 40.97467547 -35.40770233 35.25673151 C-23.61458664 23.49497868 -11.81081534 11.74397979 0 0 Z " fill="#FFD800" transform="translate(300,478)"/>
<path d="M0 0 C-0.09371099 4.48441358 -0.19984345 8.96831087 -0.31738281 13.45214844 C-0.35561266 14.97680658 -0.390476 16.50155307 -0.421875 18.02636719 C-0.46765662 20.22102381 -0.52562766 22.4150754 -0.5859375 24.609375 C-0.59748871 25.2886908 -0.60903992 25.96800659 -0.62094116 26.66790771 C-0.74137101 30.54913049 -1.20423207 32.40846414 -3 36 C-19.83 36 -36.66 36 -54 36 C-54 46.23 -54 56.46 -54 67 C-51.71964844 66.9278125 -49.43929687 66.855625 -47.08984375 66.78125 C-44.82578154 66.71119727 -42.56169625 66.64194028 -40.29760742 66.57275391 C-38.75103223 66.52507837 -37.20448137 66.47660495 -35.65795898 66.42724609 C-27.58673871 66.17018415 -19.51697199 65.94975868 -11.44140625 65.90625 C-9.61331421 65.89561523 -9.61331421 65.89561523 -7.74829102 65.88476562 C-5 66 -5 66 -4 67 C-3.90559883 71.54246337 -4.14762983 76.08542411 -4.3125 80.625 C-4.36567383 82.53345703 -4.36567383 82.53345703 -4.41992188 84.48046875 C-4.48469727 86.33478516 -4.48469727 86.33478516 -4.55078125 88.2265625 C-4.58856689 89.35658691 -4.62635254 90.48661133 -4.6652832 91.65087891 C-5 95 -5 95 -7 102 C-22.51 102 -38.02 102 -54 102 C-54 113.22 -54 124.44 -54 136 C-49.89691406 135.84402344 -45.79382813 135.68804688 -41.56640625 135.52734375 C-38.3031563 135.40619131 -35.03987187 135.28607556 -31.77655792 135.16666412 C-28.32708595 135.04015469 -24.87770475 134.91180207 -21.4284668 134.77905273 C-17.47464916 134.62696734 -13.52055158 134.48316822 -9.56640625 134.33984375 C-8.32476212 134.29093491 -7.08311798 134.24202606 -5.80384827 134.19163513 C-4.66274094 134.1515181 -3.52163361 134.11140106 -2.34594727 134.07006836 C-0.83037987 134.01344276 -0.83037987 134.01344276 0.71580505 133.95567322 C3 134 3 134 4 135 C3.95763274 137.73135259 3.85105687 140.43063785 3.6953125 143.15625 C3.63015945 144.38245056 3.63015945 144.38245056 3.56369019 145.63342285 C3.4703196 147.36529327 3.3743048 149.09702281 3.27587891 150.82861328 C3.12566317 153.48825829 2.98606385 156.14831107 2.84765625 158.80859375 C2.75584573 160.48701415 2.66341857 162.16540096 2.5703125 163.84375 C2.52858917 164.64478149 2.48686584 165.44581299 2.44387817 166.27111816 C2.11507473 171.88492527 2.11507473 171.88492527 1 173 C-0.38864877 173.10966044 -1.78275483 173.15122554 -3.17565918 173.16494751 C-4.07590317 173.17618149 -4.97614716 173.18741547 -5.90367126 173.19898987 C-6.89903397 173.20631638 -7.89439667 173.21364288 -8.91992188 173.22119141 C-9.96209366 173.2326973 -11.00426544 173.24420319 -12.07801819 173.25605774 C-15.54156492 173.29290246 -19.00513026 173.32244947 -22.46875 173.3515625 C-24.8638944 173.37466113 -27.259036 173.39805129 -29.6541748 173.42172241 C-34.68137271 173.47025355 -39.70858695 173.5151759 -44.73583984 173.55761719 C-51.19613144 173.61245423 -57.65629737 173.67627196 -64.11647797 173.74279213 C-69.06448303 173.79274608 -74.01252275 173.83792252 -78.96058655 173.88163376 C-81.34336242 173.90327411 -83.72612499 173.9264323 -86.10887146 173.9510994 C-89.43258629 173.98479841 -92.75629182 174.01207936 -96.08007812 174.03759766 C-97.07544083 174.04897263 -98.07080353 174.0603476 -99.09632874 174.07206726 C-100.44669472 174.08045876 -100.44669472 174.08045876 -101.82434082 174.08901978 C-102.611175 174.09601709 -103.39800919 174.10301441 -104.20868683 174.11022377 C-106 174 -106 174 -107 173 C-107.09373274 171.45609474 -107.11744106 169.90788803 -107.11352539 168.36114502 C-107.1134549 167.35620499 -107.1133844 166.35126495 -107.11331177 165.31587219 C-107.10814545 164.2026207 -107.10297913 163.0893692 -107.09765625 161.94238281 C-107.09619598 160.7758165 -107.09473572 159.60925018 -107.0932312 158.40733337 C-107.08840356 155.18337955 -107.07918981 151.95947026 -107.06846237 148.73553181 C-107.05844219 145.31992975 -107.05495426 141.90432207 -107.05102539 138.4887085 C-107.03805015 128.29378605 -107.01398219 118.09889227 -106.98962402 107.9039917 C-106.96777382 98.6820036 -106.9498982 89.46002144 -106.93984985 80.23801231 C-106.93828328 78.83975391 -106.93655395 77.44149568 -106.93466187 76.04323769 C-106.9070836 55.25943775 -107.10620416 34.49164041 -107.73217773 13.71588135 C-107.75694183 12.84725212 -107.78170593 11.97862289 -107.80722046 11.08367157 C-107.85363902 9.4833922 -107.9045563 7.88323436 -107.96084595 6.28327179 C-108.01212157 4.52287944 -108.01198415 2.76109818 -108 1 C-106.46354848 -0.53645152 -105.04923893 -0.14340419 -102.90699768 -0.16494751 C-101.5840419 -0.18179848 -101.5840419 -0.18179848 -100.23435974 -0.19898987 C-98.77172447 -0.20997963 -98.77172447 -0.20997963 -97.27954102 -0.22119141 C-96.25848267 -0.2326973 -95.23742432 -0.24420319 -94.1854248 -0.25605774 C-90.79161646 -0.29290496 -87.39778916 -0.32245223 -84.00390625 -0.3515625 C-81.65599794 -0.37466263 -79.30809246 -0.3980528 -76.96018982 -0.42172241 C-72.03134548 -0.47025627 -67.10248445 -0.51517654 -62.17358398 -0.55761719 C-55.84342524 -0.6124242 -49.51339552 -0.67624941 -43.18335056 -0.74279213 C-38.3322413 -0.79277991 -33.48109638 -0.83794248 -28.62992668 -0.88163376 C-26.29542535 -0.90325744 -23.96093771 -0.9264133 -21.62646675 -0.9510994 C-18.36761693 -0.98484697 -15.10877691 -1.01210373 -11.84985352 -1.03759766 C-10.39025459 -1.05466011 -10.39025459 -1.05466011 -8.90116882 -1.07206726 C-8.01637848 -1.07766159 -7.13158813 -1.08325592 -6.21998596 -1.08901978 C-5.44882226 -1.09601709 -4.67765856 -1.10301441 -3.88312626 -1.11022377 C-2 -1 -2 -1 0 0 Z " fill="#0055A0" transform="translate(852,438)"/>
<path d="M0 0 C0.69208557 -0.00100708 1.38417114 -0.00201416 2.097229 -0.00305176 C31.12745458 0.02554862 31.12745458 0.02554862 42.125 7.25 C43.82622428 10.65244855 42.8698757 14.48835232 42.56640625 18.1953125 C42.46440163 19.52283035 42.46440163 19.52283035 42.3603363 20.87716675 C42.14140789 23.71022388 41.91454411 26.54258283 41.6875 29.375 C41.53788932 31.29292809 41.38879414 33.21089647 41.24023438 35.12890625 C40.8744749 39.83642624 40.50159633 44.54333505 40.125 49.25 C36.6346992 48.61741425 34.37410932 47.9641103 31.5 45.875 C22.69795346 40.17761528 12.50766661 39.022964 2.3046875 40.71875 C-6.08382749 42.68152231 -13.01272485 46.22295812 -18.125 53.3125 C-25.25032148 65.02263837 -27.06403964 76.4484802 -27.125 89.875 C-27.145625 90.98746094 -27.16625 92.09992188 -27.1875 93.24609375 C-27.24764782 106.16283707 -24.52767348 119.72484475 -15.73046875 129.67578125 C-6.08034258 138.6683179 3.83449783 139.72463798 16.51953125 139.53515625 C23.87524666 139.23452216 30.632465 137.16571179 36.6875 132.9375 C37.491875 132.380625 38.29625 131.82375 39.125 131.25 C40.115 131.58 41.105 131.91 42.125 132.25 C42.00487448 136.16045274 41.88055399 140.07074965 41.75268555 143.98095703 C41.68913115 145.94947721 41.62870404 147.91809757 41.56835938 149.88671875 C41.48403154 152.44250089 41.38727806 154.99790462 41.27783203 157.55273438 C41.17835897 159.95915605 41.10999145 162.36713123 41.07763672 164.77539062 C40.97524397 167.7168551 40.83159775 170.39305667 40.125 173.25 C37.46875 175.3984375 37.46875 175.3984375 34.125 176.25 C33.1040625 176.55164063 32.083125 176.85328125 31.03125 177.1640625 C7.49979528 182.0754441 -18.31753531 182.16343527 -40.875 173.25 C-42.47214844 172.61964844 -42.47214844 172.61964844 -44.1015625 171.9765625 C-52.47534429 168.23324403 -58.50106184 162.67960574 -64.875 156.25 C-65.54402344 155.61449219 -66.21304688 154.97898437 -66.90234375 154.32421875 C-83.26702177 137.58845959 -86.25229252 111.30271771 -86.17749023 89.09008789 C-85.72735957 63.56244539 -79.14007576 38.94789746 -60.875 20.25 C-43.06628127 4.63958358 -23.18599586 0.02327293 0 0 Z " fill="#0055A0" transform="translate(2170.875,434.75)"/>
<path d="M0 0 C-0.56863921 13.67293897 -1.19839672 27.33863352 -2 41 C-3.71484375 41.671875 -3.71484375 41.671875 -6 42 C-8.19140625 40.890625 -8.19140625 40.890625 -10.5625 39.25 C-19.77928631 33.43882975 -29.88463746 31.44676296 -40.6328125 33.50390625 C-50.68930178 36.19486286 -58.07428485 41.34189789 -63.375 50.33203125 C-71.97167779 67.39746007 -71.93121937 87.90475294 -67 106 C-65.93007264 109.19076116 -64.63860679 112.06392981 -63 115 C-62.59136719 115.76957031 -62.18273438 116.53914062 -61.76171875 117.33203125 C-57.46680051 124.62734308 -51.64739188 128.37674829 -43.734375 131.140625 C-39.46026845 132.12420601 -35.55564274 132.34442816 -31.1875 132.3125 C-30.39214844 132.30758545 -29.59679688 132.3026709 -28.77734375 132.29760742 C-19.34375393 132.10974488 -12.25532572 129.41907176 -4.03125 124.890625 C-3.3609375 124.59671875 -2.690625 124.3028125 -2 124 C-1.34 124.33 -0.68 124.66 0 125 C-0.66 138.53 -1.32 152.06 -2 166 C-23.81933442 176.90966721 -56.23195447 175.37760702 -79 168 C-97.92682627 160.73375186 -112.54098582 147.50146612 -121 129 C-126.69568856 114.79717831 -128.39416408 100.53893463 -128.3125 85.3125 C-128.31067719 84.60723175 -128.30885437 83.9019635 -128.30697632 83.17532349 C-128.26059311 72.51337968 -127.7840011 62.35019763 -125 52 C-124.6596875 50.72898437 -124.319375 49.45796875 -123.96875 48.1484375 C-118.40199219 28.98510428 -106.82425897 12.93413938 -89.49609375 2.8671875 C-63.11352882 -11.22316561 -27.33709151 -11.50671917 0 0 Z " fill="#0055A0" transform="translate(1192,442)"/>
<path d="M0 0 C2.16062738 1.85032451 2.08474755 3.46451987 2.46875 6.2578125 C2.43057171 8.44343347 2.32244912 10.62838498 2.1640625 12.80859375 C2.07511719 14.06478516 1.98617187 15.32097656 1.89453125 16.61523438 C1.79527344 17.92041016 1.69601562 19.22558594 1.59375 20.5703125 C1.45646484 22.51067383 1.45646484 22.51067383 1.31640625 24.49023438 C0.86002452 30.7735181 0.33871723 37.01777481 -0.53125 43.2578125 C-4.06324297 42.92668816 -6.29326769 41.84448556 -9.15625 39.8828125 C-18.11156269 34.08622173 -28.42140942 32.96824045 -38.76171875 34.84375 C-48.28985673 37.27884271 -54.89411732 41.80981927 -60.375 50.01953125 C-69.7280474 67.18970895 -70.1983812 89.23158554 -64.79296875 107.76171875 C-61.40082726 117.16099624 -57.26137861 124.72164323 -48.2265625 129.46875 C-37.38033409 134.48290805 -24.32614109 135.23169003 -12.90625 131.5078125 C-8.2981945 129.71079921 -3.88452665 127.60188454 0.46875 125.2578125 C1.46875 126.2578125 1.46875 126.2578125 1.6015625 128.3203125 C1.5802686 136.32682061 1.32846221 144.31968121 1.03125 152.3203125 C0.97251709 153.98030273 0.97251709 153.98030273 0.91259766 155.67382812 C0.84951416 157.24874023 0.84951416 157.24874023 0.78515625 158.85546875 C0.74849854 159.79914307 0.71184082 160.74281738 0.67407227 161.71508789 C0.48848265 164.01344203 0.10714694 166.04792702 -0.53125 168.2578125 C-25.64191275 177.08511033 -58.55201884 177.82559017 -83.01635742 166.47265625 C-89.76694167 163.13425473 -95.92604617 159.32696773 -101.53125 154.2578125 C-102.14097656 153.72800781 -102.75070312 153.19820312 -103.37890625 152.65234375 C-120.89687189 136.4434129 -125.36233673 111.83710975 -126.71875 89.1171875 C-127.27684876 64.14226819 -122.02520061 37.02342554 -104.53125 18.2578125 C-103.90605469 17.55398438 -103.28085937 16.85015625 -102.63671875 16.125 C-79.00917685 -9.18678624 -30.90581437 -13.19440536 0 0 Z " fill="#0055A0" transform="translate(993.53125,440.7421875)"/>
<path d="M0 0 C0.67460266 0.00237671 1.34920532 0.00475342 2.04425049 0.00720215 C16.26363105 0.08542535 28.87109393 1.91278418 41.6875 8.4375 C41.81644179 16.28862252 41.62690185 24.09622498 41.25 31.9375 C41.21076416 32.79762695 41.17152832 33.65775391 41.13110352 34.54394531 C40.92381387 38.59743263 40.65308246 42.4778005 39.6875 46.4375 C35.78999419 45.87184429 33.26633783 44.73286002 30 42.5625 C21.39601074 37.2755583 12.80155608 35.17150398 2.6875 36.4375 C-1.32174416 37.69239986 -4.28414172 39.40914172 -7.25 42.375 C-9.39009695 46.52930585 -9.49520579 48.68231606 -8.375 53.3125 C-4.25632802 63.16707557 8.05840516 68.79979008 16.58007812 74.30078125 C30.52793998 83.42156281 43.552482 92.88292178 48.06640625 109.71484375 C51.14412588 128.16180482 47.44335836 143.54989685 37.5078125 159.30859375 C27.94650553 172.18495241 11.43714233 177.09665658 -3.50390625 179.83984375 C-21.39769322 182.39609903 -42.69935263 180.88477296 -59.3125 173.4375 C-61.3125 171.4375 -61.3125 171.4375 -61.47949219 168.04516602 C-61.45067486 166.59364657 -61.40980259 165.14233567 -61.359375 163.69140625 C-61.33909241 162.92448959 -61.31880981 162.15757294 -61.2979126 161.36741638 C-61.25230553 159.74406266 -61.20152595 158.12084732 -61.14599609 156.49780273 C-61.06295776 154.013694 -61.00101902 151.52969057 -60.94140625 149.04492188 C-60.89449839 147.46871172 -60.84636198 145.89253754 -60.796875 144.31640625 C-60.77904968 143.57258194 -60.76122437 142.82875763 -60.74285889 142.06239319 C-60.60221884 138.35450501 -60.41944399 136.59791598 -58.3125 133.4375 C-54.5580906 134.86513648 -51.0558366 136.57336548 -47.5 138.4375 C-37.77901829 143.28027339 -27.94418094 145.32937527 -17.03125 142.9375 C-12.94897216 141.36188399 -10.11108196 138.72994937 -7.3125 135.4375 C-6.43180825 132.79542476 -6.06206717 130.92797785 -5.9375 128.1875 C-5.88851563 127.46046875 -5.83953125 126.7334375 -5.7890625 125.984375 C-7.04005391 119.89746157 -11.11345786 116.35412321 -16.0078125 112.97265625 C-17.80982281 111.80286628 -19.62007829 110.64569983 -21.4375 109.5 C-23.32785877 108.27503455 -25.21719213 107.04848515 -27.10546875 105.8203125 C-28.00700684 105.23797852 -28.90854492 104.65564453 -29.83740234 104.05566406 C-34.46547482 101.02993271 -38.90922808 97.78133807 -43.3125 94.4375 C-44.364375 93.674375 -45.41625 92.91125 -46.5 92.125 C-56.44135457 82.62548341 -61.79903179 71.25264233 -62.515625 57.5546875 C-62.80984654 41.69465679 -59.92788903 27.18948629 -48.8125 15.125 C-35.15093311 2.40419969 -18.03445807 -0.13926222 0 0 Z " fill="#0055A0" transform="translate(1600.3125,434.5625)"/>
<path d="M0 0 C-1.49964544 35.49964544 -1.49964544 35.49964544 -3 37 C-11.31843957 37.45617249 -19.70441463 36.90796345 -28.015625 36.4921875 C-28.98000488 36.44505615 -29.94438477 36.3979248 -30.93798828 36.34936523 C-33.29205561 36.23414137 -35.64605345 36.11766135 -38 36 C-37.99392447 36.6999858 -37.98784895 37.3999716 -37.98158932 38.12116909 C-37.83431508 55.12899521 -37.6925721 72.13685834 -37.5570364 89.14478207 C-37.49135889 97.36957736 -37.42378785 105.59434906 -37.35180664 113.8190918 C-37.28909533 120.98517683 -37.22988835 128.15128064 -37.17494446 135.3174296 C-37.14571031 139.11418908 -37.11468416 142.91091536 -37.07946587 146.70762444 C-37.04641011 150.27715728 -37.01802029 153.84669604 -36.99329376 157.41629601 C-36.97859621 159.35917342 -36.9588754 161.30201077 -36.93904114 163.24484253 C-36.9284819 164.96339195 -36.9284819 164.96339195 -36.91770935 166.71665955 C-36.90941321 167.71864852 -36.90111708 168.72063749 -36.89256954 169.75298977 C-37 172 -37 172 -38 173 C-39.93508297 173.15978447 -41.87581714 173.25166778 -43.81640625 173.31640625 C-45.04536621 173.35838135 -46.27432617 173.40035645 -47.54052734 173.44360352 C-48.88117399 173.48360287 -50.22183187 173.52322725 -51.5625 173.5625 C-52.23162415 173.58367889 -52.90074829 173.60485779 -53.59014893 173.62667847 C-66.39397776 174.03116506 -79.19012327 174.11770455 -92 174 C-92.97821341 170.74532873 -93.09870582 167.86048035 -93.04432678 164.4697876 C-93.02887314 163.34520645 -93.01341949 162.22062531 -92.99749756 161.06196594 C-92.97520081 159.83269882 -92.95290405 158.6034317 -92.92993164 157.33691406 C-92.90088997 155.39020058 -92.90088997 155.39020058 -92.8712616 153.40415955 C-92.81809925 149.84863774 -92.75840196 146.29325211 -92.69753575 142.73785496 C-92.63501549 139.02099465 -92.57849899 135.3040432 -92.52134705 131.58709717 C-92.41223119 124.55000541 -92.29771191 117.51301236 -92.18125385 110.47603869 C-92.04892315 102.46407179 -91.92261226 94.45201352 -91.79680836 86.43994188 C-91.53790637 69.95984866 -91.2706457 53.47990518 -91 37 C-103.21 37 -115.42 37 -128 37 C-128 16.06156716 -128 16.06156716 -127.5625 8.9375 C-127.52318359 8.16857422 -127.48386719 7.39964844 -127.44335938 6.60742188 C-127.12788563 1.12788563 -127.12788563 1.12788563 -126 0 C-124.39808088 -0.11032299 -122.79133963 -0.15128406 -121.1856842 -0.16494751 C-120.14384476 -0.17618149 -119.10200531 -0.18741547 -118.02859497 -0.19898987 C-116.87584076 -0.20631638 -115.72308655 -0.21364288 -114.53540039 -0.22119141 C-112.72583611 -0.23845024 -112.72583611 -0.23845024 -110.87971497 -0.25605774 C-107.56157281 -0.28654831 -104.24345538 -0.31254145 -100.92526174 -0.3362546 C-97.45881171 -0.36179558 -93.99240318 -0.3921414 -90.52598572 -0.42172241 C-84.70265069 -0.47060263 -78.87929415 -0.51527252 -73.0559082 -0.55761719 C-66.31724188 -0.6066821 -59.57866459 -0.66298241 -52.84008795 -0.72303832 C-47.06261714 -0.77433461 -41.28512377 -0.82168269 -35.5075931 -0.86572587 C-32.0534361 -0.89206473 -28.5993052 -0.91979794 -25.14518929 -0.9510994 C-21.2948255 -0.98573513 -17.44442981 -1.01209681 -13.59399414 -1.03759766 C-11.86789917 -1.05466011 -11.86789917 -1.05466011 -10.10693359 -1.07206726 C-9.06227432 -1.07766159 -8.01761505 -1.08325592 -6.94129944 -1.08901978 C-6.0300232 -1.09601709 -5.11874697 -1.10301441 -4.1798563 -1.11022377 C-2 -1 -2 -1 0 0 Z " fill="#0055A0" transform="translate(1775,438)"/>
<path d="M0 0 C0.14892648 2.61709877 0.11499406 4.96457953 -0.07421875 7.5625 C-0.11811234 8.30959229 -0.16200592 9.05668457 -0.20722961 9.82641602 C-0.30351135 11.40720717 -0.40741409 12.98754965 -0.51831055 14.56738281 C-0.68676568 16.98944197 -0.82865791 19.4119804 -0.96679688 21.8359375 C-1.06353011 23.36989174 -1.16178647 24.90375085 -1.26171875 26.4375 C-1.3045549 27.16461182 -1.34739105 27.89172363 -1.39152527 28.64086914 C-1.76862227 33.76862227 -1.76862227 33.76862227 -4 36 C-12.2332943 36.75312304 -20.76452213 35.89599422 -29.01171875 35.48828125 C-29.97638062 35.44143188 -30.94104248 35.39458252 -31.93493652 35.34631348 C-34.2900047 35.23180567 -36.64502217 35.11634875 -39 35 C-38.89072591 47.12136339 -38.77780234 59.24268739 -38.66066074 71.36397743 C-38.6063275 76.99703222 -38.55308886 82.63009216 -38.50268555 88.26318359 C-38.44408045 94.79267915 -38.38173516 101.32213082 -38.31640625 107.8515625 C-38.30585835 108.91974464 -38.29531044 109.98792679 -38.2844429 111.08847809 C-38.1182212 127.40347092 -37.78988505 143.70857702 -37.239151 160.01528931 C-37.20407157 161.13197935 -37.20407157 161.13197935 -37.16828346 162.27122879 C-37.10585338 164.25210219 -37.03781863 166.23279676 -36.96934509 168.21347046 C-37 171 -37 171 -38 172 C-40.01986798 172.15986345 -42.04516197 172.25168905 -44.0703125 172.31640625 C-45.3495459 172.35846191 -46.6287793 172.40051758 -47.94677734 172.44384766 C-49.33950529 172.48385133 -50.73224659 172.52339287 -52.125 172.5625 C-52.81974426 172.58334656 -53.51448853 172.60419312 -54.23028564 172.62567139 C-63.61093086 172.90627626 -72.98974912 173.09996255 -82.375 173.125 C-83.34195801 173.12959229 -84.30891602 173.13418457 -85.30517578 173.13891602 C-86.18157715 173.13690186 -87.05797852 173.1348877 -87.9609375 173.1328125 C-88.72196777 173.13168457 -89.48299805 173.13055664 -90.26708984 173.12939453 C-92 173 -92 173 -93 172 C-93.09023526 170.52544745 -93.11131506 169.04658354 -93.10411072 167.56929016 C-93.10185517 166.62464747 -93.09959963 165.68000479 -93.09727573 164.70673656 C-93.08574168 163.15287731 -93.08574168 163.15287731 -93.07397461 161.56762695 C-93.06975211 160.49053876 -93.06552961 159.41345057 -93.06117916 158.30372334 C-93.04611332 154.86909757 -93.02362802 151.43457663 -93 148 C-92.98792637 145.88268094 -92.9759708 143.76536121 -92.96414185 141.64804077 C-92.92428988 135.07126843 -92.87162035 128.49462791 -92.81640625 121.91796875 C-92.80662184 120.74117365 -92.79683743 119.56437855 -92.78675652 118.35192299 C-92.73503859 112.16274481 -92.68190167 105.9735806 -92.62768555 99.78442383 C-92.5832657 94.68222873 -92.54175842 89.58002201 -92.50268555 84.4777832 C-92.45510265 78.26446246 -92.40282352 72.05119849 -92.34705925 65.83794594 C-92.32668741 63.48197089 -92.30796593 61.12598098 -92.29092598 58.76997948 C-92.26692783 55.5017867 -92.2368855 52.23370339 -92.20532227 48.96557617 C-92.1995668 47.99483658 -92.19381134 47.02409698 -92.18788147 46.02394104 C-92.17809265 45.13735809 -92.16830383 44.25077515 -92.15821838 43.33732605 C-92.15176583 42.56745959 -92.14531328 41.79759314 -92.1386652 41.00439739 C-92 39 -92 39 -91 36 C-92.11560303 36.00523682 -93.23120605 36.01047363 -94.38061523 36.01586914 C-98.50479333 36.03391775 -102.62896791 36.04543149 -106.75317383 36.05493164 C-108.54094021 36.05997218 -110.32870245 36.06680454 -112.11645508 36.07543945 C-114.68051168 36.0875173 -117.24451397 36.09323094 -119.80859375 36.09765625 C-121.01484657 36.10539818 -121.01484657 36.10539818 -122.24546814 36.11329651 C-124.16401715 36.11349215 -126.08245368 36.06201983 -128 36 C-129 35 -129 35 -129.0534668 31.79711914 C-129.0247193 30.37633072 -128.98949213 28.95566468 -128.94921875 27.53515625 C-128.9303511 26.78664902 -128.91148346 26.03814178 -128.89204407 25.26695251 C-128.85009108 23.68057992 -128.80534675 22.09427911 -128.75805664 20.50805664 C-128.68790336 18.07648094 -128.63355288 15.64488301 -128.58007812 13.21289062 C-128.53742745 11.67445199 -128.49383877 10.13603902 -128.44921875 8.59765625 C-128.43453049 7.86740738 -128.41984222 7.13715851 -128.40470886 6.38478088 C-128.22888885 1.22888885 -128.22888885 1.22888885 -126 -1 C-123.84134769 -1.26729965 -123.84134769 -1.26729965 -121.11012268 -1.29193115 C-119.56009048 -1.31301186 -119.56009048 -1.31301186 -117.97874451 -1.33451843 C-116.84050735 -1.33982071 -115.7022702 -1.34512299 -114.52954102 -1.35058594 C-112.73679749 -1.37047325 -112.73679749 -1.37047325 -110.90783691 -1.39076233 C-107.62480869 -1.42487523 -104.34186522 -1.4500147 -101.05872846 -1.4705801 C-97.62609101 -1.49362486 -94.19354283 -1.52629826 -90.76097107 -1.55743408 C-84.99490189 -1.60811079 -79.22881465 -1.65038103 -73.46264648 -1.68798828 C-66.79376628 -1.73161202 -60.12512691 -1.78967441 -53.45642906 -1.85523582 C-47.73499538 -1.91109786 -42.01353494 -1.95908012 -36.2919783 -2.0004847 C-32.87298277 -2.02523976 -29.45406915 -2.05275586 -26.03515816 -2.08739471 C-22.22338307 -2.12369863 -18.41174469 -2.14709081 -14.59985352 -2.16699219 C-13.46364059 -2.18039139 -12.32742767 -2.19379059 -11.15678406 -2.20759583 C-9.60252213 -2.21175758 -9.60252213 -2.21175758 -8.01686096 -2.21600342 C-7.11517968 -2.22262371 -6.2134984 -2.229244 -5.28449345 -2.23606491 C-3 -2 -3 -2 0 0 Z " fill="#0055A0" transform="translate(2347,439)"/>
<path d="M0 0 C-0.00138269 1.01069786 -0.00138269 1.01069786 -0.00279331 2.04181385 C-0.02510941 18.61931354 -0.04153637 35.19680833 -0.05181217 51.77431965 C-0.05691657 59.79185343 -0.06384393 67.80937705 -0.07543945 75.8269043 C-0.08556915 82.83439889 -0.09189567 89.84188611 -0.09408849 96.84938782 C-0.09536543 100.54213674 -0.09825011 104.23486459 -0.10573006 107.92760658 C-0.11389018 112.10189187 -0.11652893 116.27614715 -0.11352539 120.45043945 C-0.11310592 121.11911974 -0.11268645 121.78780002 -0.11225426 122.47674334 C-0.09307202 135.38108611 0.26568015 148.27146081 0.73712826 161.16668415 C0.76165707 161.88617178 0.78618588 162.60565941 0.81145799 163.3469497 C0.8782153 165.29923607 0.95056285 167.25132899 1.02327824 169.20340252 C1 172 1 172 0 173 C-2.34631308 173.16095019 -4.66606136 173.25986968 -7.015625 173.31640625 C-7.74126648 173.33718735 -8.46690796 173.35796844 -9.21453857 173.37937927 C-10.7681255 173.42279679 -12.32178085 173.46381887 -13.87548828 173.50268555 C-16.17109841 173.56051245 -18.46636511 173.62620143 -20.76171875 173.69335938 C-29.21056492 173.92734894 -37.65238175 174.0255986 -46.10449219 174.01147461 C-47.06245697 174.01064629 -48.02042175 174.00981796 -49.00741577 174.00896454 C-51.3382795 174.00682838 -53.66913854 174.00382748 -56 174 C-56.15374518 151.46090947 -56.30178255 128.92178796 -56.4429636 106.38261509 C-56.50864567 95.91806137 -56.57621869 85.45352616 -56.64819336 74.98901367 C-56.71089778 65.87162732 -56.77010523 56.75422624 -56.82505554 47.63678974 C-56.85429384 42.8060462 -56.88532243 37.9753287 -56.92053413 33.14462471 C-56.95358146 28.60328805 -56.98197394 24.06194673 -57.00670624 19.5205574 C-57.01664794 17.84874408 -57.02832971 16.17694012 -57.04183006 14.50515175 C-57.0599272 12.2327678 -57.07191616 9.96043387 -57.08229065 7.68800354 C-57.09058679 6.41316384 -57.09888292 5.13832415 -57.10743046 3.82485294 C-57 1 -57 1 -56 0 C-54.32367133 -0.1281994 -52.6420852 -0.1883873 -50.96118164 -0.22119141 C-49.88659195 -0.24436432 -48.81200226 -0.26753723 -47.70484924 -0.29141235 C-45.95022621 -0.32118668 -45.95022621 -0.32118668 -44.16015625 -0.3515625 C-42.37151405 -0.38629166 -42.37151405 -0.38629166 -40.54673767 -0.42172241 C-38.01891469 -0.46944741 -35.49104345 -0.51467078 -32.96313477 -0.55761719 C-29.08266454 -0.62465166 -25.20251183 -0.70240825 -21.32226562 -0.78125 C-18.87240763 -0.82616882 -16.42253804 -0.87046062 -13.97265625 -0.9140625 C-12.22106956 -0.94990952 -12.22106956 -0.94990952 -10.43409729 -0.98648071 C-9.35635544 -1.0033493 -8.27861359 -1.0202179 -7.16821289 -1.03759766 C-6.21636612 -1.05456696 -5.26451935 -1.07153625 -4.28382874 -1.08901978 C-2 -1 -2 -1 0 0 Z " fill="#0055A0" transform="translate(2411,438)"/>
<path d="M0 0 C2.52120553 1.1888427 4.07173855 2.65458869 6.03517151 4.637146 C6.81567871 5.41787979 7.59618591 6.19861359 8.40034485 7.00300598 C9.2327771 7.85092209 10.06520935 8.6988382 10.92286682 9.57244873 C11.78285278 10.43667953 12.64283875 11.30091034 13.52888489 12.19132996 C16.27669757 14.9559486 19.01390218 17.7308111 21.75099182 20.50604248 C23.61098007 22.38107499 25.47164889 24.25543266 27.33302307 26.12908936 C31.89694155 30.72610265 36.4521912 35.33157203 41.00099182 39.94354248 C39.55518216 43.2596813 37.7526939 45.43539977 35.19386292 47.97772217 C34.41320465 48.75822937 33.63254639 49.53873657 32.82823181 50.34289551 C31.98547699 51.17532776 31.14272217 52.00776001 30.27442932 52.86541748 C29.41161346 53.72540344 28.54879761 54.5853894 27.65983582 55.47143555 C24.90321153 58.21686558 22.13971383 60.95525938 19.37599182 63.69354248 C17.50574325 65.55376031 15.63594593 67.41443194 13.76661682 69.27557373 C9.18329822 73.83684193 4.59431705 78.39235259 0.00099182 82.94354248 C-3.24289732 81.51510044 -5.43722965 79.77165079 -7.95726013 77.29168701 C-8.72097427 76.54396027 -9.48468842 75.79623352 -10.27154541 75.02584839 C-11.08524094 74.21751556 -11.89893646 73.40918274 -12.73728943 72.57635498 C-13.57745102 71.74522186 -14.41761261 70.91408875 -15.28323364 70.05776978 C-17.05523147 68.30027025 -18.82443851 66.53995308 -20.59104919 64.77703857 C-23.30643412 62.07359423 -26.03990481 59.38935774 -28.7743988 56.70526123 C-30.49234155 54.99677726 -32.20917723 53.28717921 -33.92478943 51.57635498 C-34.74860611 50.77207062 -35.57242279 49.96778625 -36.42120361 49.13912964 C-37.16915695 48.38509857 -37.91711029 47.6310675 -38.68772888 46.85418701 C-39.35295059 46.19403595 -40.0181723 45.53388489 -40.70355225 44.85372925 C-41.99900818 42.94354248 -41.99900818 42.94354248 -41.93284607 40.95225525 C-40.76372802 38.43744793 -39.31974926 36.86856748 -37.36888123 34.89349365 C-36.6010582 34.10975876 -35.83323517 33.32602386 -35.04214478 32.51853943 C-34.20677689 31.68297012 -33.371409 30.84740082 -32.51072693 29.98651123 C-31.22861076 28.69297478 -31.22861076 28.69297478 -29.92059326 27.37330627 C-28.11117966 25.55308583 -26.29776956 23.73683079 -24.48069763 21.92425537 C-21.69389813 19.13842985 -18.92909901 16.33197218 -16.1650238 13.52362061 C-14.40656019 11.75995168 -12.64683648 9.99753806 -10.88572693 8.23651123 C-9.64178413 6.96797554 -9.64178413 6.96797554 -8.37271118 5.67381287 C-7.20679192 4.52185173 -7.20679192 4.52185173 -6.01731873 3.34661865 C-5.33638657 2.66363205 -4.65545441 1.98064545 -3.95388794 1.27696228 C-1.99900818 -0.05645752 -1.99900818 -0.05645752 0 0 Z " fill="#FFD800" transform="translate(357.99900817871094,535.0564575195313)"/>
<path d="M0 0 C0.83265381 0.00523682 1.66530762 0.01047363 2.52319336 0.01586914 C3.42231445 0.0190918 4.32143555 0.02231445 5.24780273 0.02563477 C6.66609375 0.03820312 6.66609375 0.03820312 8.11303711 0.05102539 C9.06243164 0.05553711 10.01182617 0.06004883 10.98999023 0.06469727 C13.3435708 0.0765243 15.69701292 0.09384445 18.05053711 0.11352539 C20.80766933 5.52133685 23.35098019 10.96460601 25.72241211 16.55102539 C26.04969299 17.31656738 26.37697388 18.08210937 26.71417236 18.87084961 C27.7452588 21.28410153 28.77295489 23.69877957 29.80053711 26.11352539 C30.5047392 27.76336103 31.20916427 29.41310151 31.91381836 31.06274414 C33.62863465 35.07857707 35.34041476 39.09569146 37.05053711 43.11352539 C39.98742128 39.55489416 41.93737415 35.57834685 43.95678711 31.46118164 C44.32276001 30.72403427 44.68873291 29.9868869 45.0657959 29.22740173 C46.2312105 26.87881918 47.39123159 24.52762872 48.55053711 22.17602539 C49.71052366 19.82834177 50.87169996 17.48126632 52.03527832 15.13536072 C52.75766269 13.67843629 53.47790619 12.22044776 54.19567871 10.76124573 C54.84432581 9.45113159 55.505976 8.14734314 56.18286133 6.85159302 C57.17307918 4.94460253 57.17307918 4.94460253 58.15795898 2.14648438 C60.51018661 -0.38021834 61.34849124 -0.23512846 64.71850586 -0.37475586 C66.55898258 -0.34153426 68.39913043 -0.28192321 70.23803711 -0.19897461 C71.64859375 -0.16513672 71.64859375 -0.16513672 73.08764648 -0.13061523 C75.41021184 -0.07166688 77.72957486 0.01054754 80.05053711 0.11352539 C80.48043122 6.83943296 80.90736993 13.5655235 81.33227539 20.29174805 C81.47710569 22.57890042 81.62260715 24.86601041 81.76879883 27.15307617 C81.97907042 30.44447024 82.18691104 33.73601028 82.39428711 37.02758789 C82.45990845 38.04656158 82.52552979 39.06553528 82.59313965 40.11538696 C82.68323303 41.55620132 82.68323303 41.55620132 82.77514648 43.02612305 C82.82844116 43.86551422 82.88173584 44.7049054 82.93664551 45.56973267 C83.0640378 48.4150662 83.05053711 51.26534146 83.05053711 54.11352539 C78.10053711 54.11352539 73.15053711 54.11352539 68.05053711 54.11352539 C67.25901836 44.67516318 66.78011128 35.26710124 66.48803711 25.80102539 C66.44468002 24.46312623 66.40106144 23.12523551 66.35717773 21.78735352 C66.2524094 18.56281715 66.15023694 15.33822176 66.05053711 12.11352539 C65.73415283 12.78182373 65.41776855 13.45012207 65.09179688 14.13867188 C58.69310853 27.62926873 52.15098345 40.97769965 45.05053711 54.11352539 C39.44053711 54.11352539 33.83053711 54.11352539 28.05053711 54.11352539 C25.64088478 48.93888557 23.23834665 43.76102508 20.84228516 38.58007812 C20.02651599 36.81876202 19.20882446 35.05833493 18.38916016 33.29882812 C17.20999352 30.76673045 16.03782186 28.23149551 14.86694336 25.69555664 C14.5002504 24.91203323 14.13355743 24.12850983 13.75575256 23.32124329 C12.04620982 19.60154522 10.59652266 16.21376984 10.05053711 12.11352539 C9.39053711 12.11352539 8.73053711 12.11352539 8.05053711 12.11352539 C8.06213867 13.21825195 8.07374023 14.32297852 8.08569336 15.46118164 C8.17562809 28.37103186 7.69688427 41.22120801 7.05053711 54.11352539 C2.43053711 54.11352539 -2.18946289 54.11352539 -6.94946289 54.11352539 C-6.82829102 52.54989258 -6.70711914 50.98625977 -6.58227539 49.37524414 C-6.50227295 48.33940186 -6.42227051 47.30355957 -6.33984375 46.23632812 C-6.16146172 43.92720806 -5.98258003 41.61812654 -5.80322266 39.30908203 C-5.31652167 33.01087369 -4.84664713 26.71204422 -4.40649414 20.41040039 C-4.31932129 19.17845947 -4.23214844 17.94651855 -4.14233398 16.67724609 C-3.97352638 14.28021033 -3.80842207 11.88291059 -3.6472168 9.48535156 C-3.57035645 8.40229736 -3.49349609 7.31924316 -3.41430664 6.20336914 C-3.31557251 4.76272095 -3.31557251 4.76272095 -3.21484375 3.29296875 C-2.87785653 0.52545736 -2.79006669 0.16247727 0 0 Z " fill="#0055A0" transform="translate(899.949462890625,631.886474609375)"/>
<path d="M0 0 C18 0 18 0 24.1875 5.5 C25.71704102 7.31396484 25.71704102 7.31396484 26.75390625 8.8359375 C28.60074953 11.43757759 30.48679688 13.76861289 32.625 16.125 C33.16769531 16.75019531 33.71039062 17.37539063 34.26953125 18.01953125 C41.056613 25.78713948 48.05504433 33.37359774 55 41 C55.14235515 30.24427763 54.82864913 19.55455355 54.26782227 8.8125 C54.21940186 7.81347656 54.17098145 6.81445312 54.12109375 5.78515625 C54.0739624 4.88676025 54.02683105 3.98836426 53.97827148 3.06274414 C54 1 54 1 55 0 C59.29 0 63.58 0 68 0 C68 17.82 68 35.64 68 54 C50 54 50 54 46.0625 50.75 C45.03364624 49.17186659 44.01378477 47.58785566 43 46 C41.23372135 44.00713538 39.45308834 42.05844209 37.625 40.125 C36.67018962 39.09009407 35.71705596 38.05363862 34.765625 37.015625 C34.29962891 36.50837891 33.83363281 36.00113281 33.35351562 35.47851562 C29.87417639 31.67785213 26.44058338 27.83570338 23 24 C21.33375015 22.14545875 19.6670915 20.29128471 18 18.4375 C17.2575 17.61121094 16.515 16.78492188 15.75 15.93359375 C14.85059394 14.93983036 13.94775971 13.94775971 13 13 C12.84611286 26.69595507 13.31972037 40.32152031 14 54 C9.38 54 4.76 54 0 54 C0 36.18 0 18.36 0 0 Z " fill="#0055A0" transform="translate(1312,632)"/>
<path d="M0 0 C4.62 0 9.24 0 14 0 C20.772854 12.59274362 27.22543777 25.33970632 33.625 38.125 C34.24420319 39.35966003 34.24420319 39.35966003 34.87591553 40.6192627 C36.05761608 42.9767955 37.23637531 45.33577275 38.4140625 47.6953125 C38.77610779 48.41741913 39.13815308 49.13952576 39.51116943 49.8835144 C42 54.88475875 42 54.88475875 42 56 C36.39 56 30.78 56 25 56 C20 47.25 20 47.25 20 45 C11.09 45 2.18 45 -7 45 C-7.99 47.97 -8.98 50.94 -10 54 C-10.33 54.66 -10.66 55.32 -11 56 C-16.28 56 -21.56 56 -27 56 C-25.63511579 51.90534737 -24.37920761 48.51216061 -22.47802734 44.72900391 C-21.97765961 43.72841949 -21.47729187 42.72783508 -20.96176147 41.69692993 C-20.42523956 40.63420868 -19.88871765 39.57148743 -19.3359375 38.4765625 C-18.50783066 36.82459366 -18.50783066 36.82459366 -17.66299438 35.13925171 C-15.90408506 31.63260103 -14.13962385 28.12877791 -12.375 24.625 C-11.17886846 22.24389985 -9.98400377 19.86216676 -8.7890625 17.48046875 C-5.86358169 11.6515227 -2.93311952 5.82510575 0 0 Z M6 18 C5.15930585 19.60032137 4.32768495 21.20541171 3.5 22.8125 C3.0359375 23.70582031 2.571875 24.59914063 2.09375 25.51953125 C0.79826859 28.00568026 0.79826859 28.00568026 1 31 C4.96 31 8.92 31 13 31 C12.21658881 29.01755108 11.42302514 27.03911141 10.625 25.0625 C10.18414063 23.96035156 9.74328125 22.85820313 9.2890625 21.72265625 C8.28958568 18.88769814 8.28958568 18.88769814 6 18 Z " fill="#0055A0" transform="translate(752,703)"/>
<path d="M0 0 C4.62 0 9.24 0 14 0 C20.772854 12.59274362 27.22543777 25.33970632 33.625 38.125 C34.24420319 39.35966003 34.24420319 39.35966003 34.87591553 40.6192627 C36.05761608 42.9767955 37.23637531 45.33577275 38.4140625 47.6953125 C38.77610779 48.41741913 39.13815308 49.13952576 39.51116943 49.8835144 C42 54.88475875 42 54.88475875 42 56 C36.39 56 30.78 56 25 56 C20 47.25 20 47.25 20 45 C11.09 45 2.18 45 -7 45 C-7.66 46.98 -8.32 48.96 -9 51 C-9.99 53.475 -9.99 53.475 -11 56 C-16.28 56 -21.56 56 -27 56 C-25.63511579 51.90534737 -24.37920761 48.51216061 -22.47802734 44.72900391 C-21.97765961 43.72841949 -21.47729187 42.72783508 -20.96176147 41.69692993 C-20.42523956 40.63420868 -19.88871765 39.57148743 -19.3359375 38.4765625 C-18.50783066 36.82459366 -18.50783066 36.82459366 -17.66299438 35.13925171 C-15.90408506 31.63260103 -14.13962385 28.12877791 -12.375 24.625 C-11.17886846 22.24389985 -9.98400377 19.86216676 -8.7890625 17.48046875 C-5.86358169 11.6515227 -2.93311952 5.82510575 0 0 Z M6 18 C4.02 22.29 2.04 26.58 0 31 C4.29 31 8.58 31 13 31 C11.824375 28.0609375 11.824375 28.0609375 10.625 25.0625 C10.18414063 23.96035156 9.74328125 22.85820313 9.2890625 21.72265625 C8.28958568 18.88769814 8.28958568 18.88769814 6 18 Z " fill="#0055A0" transform="translate(652,703)"/>
<path d="M0 0 C4.95 0 9.9 0 15 0 C16.20217503 2.40435006 16.03897118 3.68381369 15.87890625 6.3515625 C15.83580322 7.11807129 15.7927002 7.88458008 15.74829102 8.67431641 C15.68697998 9.64804199 15.62566895 10.62176758 15.5625 11.625 C15.376875 14.71875 15.19125 17.8125 15 21 C27.54 21 40.08 21 53 21 C52.63156987 14.46268166 52.63156987 14.46268166 52.25170898 7.92602539 C52.20860596 7.11641357 52.16550293 6.30680176 52.12109375 5.47265625 C52.0739624 4.64000244 52.02683105 3.80734863 51.97827148 2.94946289 C52 1 52 1 53 0 C55.53049402 -0.07313567 58.03304837 -0.09247527 60.5625 -0.0625 C61.62887695 -0.05573242 61.62887695 -0.05573242 62.71679688 -0.04882812 C64.47790013 -0.03700864 66.23896036 -0.01907263 68 0 C67.99214478 1.22795288 67.99214478 1.22795288 67.98413086 2.48071289 C67.88909247 19.68747421 68.04610215 36.81280479 69 54 C63.72 54 58.44 54 53 54 C53 45.75 53 37.5 53 29 C40.46 29 27.92 29 15 29 C15.33 37.25 15.66 45.5 16 54 C10.72 54 5.44 54 0 54 C0 36.18 0 18.36 0 0 Z " fill="#0055A0" transform="translate(690,632)"/>
<path d="M0 0 C1.15941038 3.47823115 0.70820884 5.45895578 0 9 C-3.70989431 8.53626321 -7.10551407 7.97110265 -10.72265625 6.98046875 C-14.99660101 5.89640408 -19.04131327 5.65348695 -23.4375 5.6875 C-24.18104736 5.69168945 -24.92459473 5.69587891 -25.69067383 5.70019531 C-33.83908751 5.86781778 -40.62970023 7.66672577 -47 13 C-51.44734717 18.73473715 -51.86349406 23.86538034 -51 31 C-49.54928542 35.6081522 -47.27039739 38.267483 -43.1796875 40.8984375 C-33.00591877 46.04001954 -22.06769903 45.25153861 -11 45 C-11.33 38.4 -11.66 31.8 -12 25 C-6.72 25 -1.44 25 4 25 C3.67 33.25 3.34 41.5 3 50 C-13.34937643 55.44979214 -35.97640761 55.91297461 -52 49 C-58.76467366 45.53492975 -63.9966289 41.19753946 -67.3125 34.25 C-68.89701142 26.75958237 -68.63597253 19.82853378 -65 13 C-59.60397385 4.8242028 -50.38780528 0.21545829 -41 -2 C-27.20693504 -4.40244615 -13.50891087 -3.39237224 0 0 Z " fill="#0055A0" transform="translate(1270,634)"/>
<path d="M0 0 C0.89267578 0.01804687 1.78535156 0.03609375 2.70507812 0.0546875 C4.90863504 0.10182241 7.11002601 0.16759343 9.3125 0.25 C9.59398392 0.81518845 9.87546783 1.38037689 10.16548157 1.96269226 C13.09934338 7.85256396 16.03603579 13.74101799 18.97436523 19.62866211 C20.07014238 21.82524066 21.16520075 24.02217793 22.25952148 26.21948242 C23.83387808 29.38034454 25.41082707 32.5399016 26.98828125 35.69921875 C27.47589432 36.67960617 27.96350739 37.65999359 28.46589661 38.67008972 C29.15627266 40.05095512 29.15627266 40.05095512 29.8605957 41.4597168 C30.2625264 42.2657988 30.66445709 43.0718808 31.0785675 43.90238953 C32.31578888 46.33254256 32.31578888 46.33254256 33.96574402 48.8618927 C35.3125 51.25 35.3125 51.25 35.3125 54.25 C30.0325 54.25 24.7525 54.25 19.3125 54.25 C18.1575 51.98125 17.0025 49.7125 15.8125 47.375 C15.44705078 46.66230957 15.08160156 45.94961914 14.70507812 45.21533203 C12.3125 40.47222222 12.3125 40.47222222 12.3125 38.25 C2.7425 38.58 -6.8275 38.91 -16.6875 39.25 C-18.9975 44.2 -21.3075 49.15 -23.6875 54.25 C-28.6375 54.25 -33.5875 54.25 -38.6875 54.25 C-36.43991158 47.50723473 -36.43991158 47.50723473 -34.796875 44.640625 C-34.42377197 43.98078613 -34.05066895 43.32094727 -33.66625977 42.64111328 C-33.26076904 41.9345459 -32.85527832 41.22797852 -32.4375 40.5 C-27.28334197 31.39046111 -22.33185739 22.17798427 -17.42285156 12.93457031 C-16.85147461 11.86561523 -16.28009766 10.79666016 -15.69140625 9.6953125 C-15.18424072 8.74156738 -14.6770752 7.78782227 -14.15454102 6.80517578 C-13.67041748 5.96196777 -13.18629395 5.11875977 -12.6875 4.25 C-12.33034912 3.48284668 -11.97319824 2.71569336 -11.60522461 1.92529297 C-8.29277212 -0.96841155 -4.21881276 -0.16048154 0 0 Z M-2.6875 8.25 C-4.36044007 11.70533314 -6.02477763 15.16473993 -7.6875 18.625 C-8.16445312 19.60984375 -8.64140625 20.5946875 -9.1328125 21.609375 C-9.58398438 22.55039062 -10.03515625 23.49140625 -10.5 24.4609375 C-11.12841797 25.76490479 -11.12841797 25.76490479 -11.76953125 27.09521484 C-12.81814356 29.16630306 -12.81814356 29.16630306 -12.6875 31.25 C-5.7575 31.25 1.1725 31.25 8.3125 31.25 C6.34015381 25.33296143 4.46051477 20.12766299 1.625 14.6875 C1.30466797 14.06037109 0.98433594 13.43324219 0.65429688 12.78710938 C-0.12068206 11.27185205 -0.90325296 9.76048128 -1.6875 8.25 C-2.0175 8.25 -2.3475 8.25 -2.6875 8.25 Z " fill="#0055A0" transform="translate(1140.6875,631.75)"/>
<path d="M0 0 C6.6 0 13.2 0 20 0 C23.39421525 6.74329466 26.7850573 13.48826475 30.16993713 20.23624992 C31.74170891 23.36934425 33.31496434 26.50167508 34.89160156 29.63232422 C36.70297726 33.22924268 38.50791127 36.82935914 40.3125 40.4296875 C40.88121826 41.55680145 41.44993652 42.68391541 42.03588867 43.84518433 C42.55642822 44.88611237 43.07696777 45.92704041 43.61328125 46.99951172 C44.07516846 47.91884491 44.53705566 48.8381781 45.01293945 49.78536987 C46 52 46 52 46 54 C40.72 54 35.44 54 30 54 C28.845 51.73125 27.69 49.4625 26.5 47.125 C26.13455078 46.41230957 25.76910156 45.69961914 25.39257812 44.96533203 C23 40.22222222 23 40.22222222 23 38 C13.1 38 3.2 38 -7 38 C-7.33 39.65 -7.66 41.3 -8 43 C-9.53666361 46.73333685 -11.28214923 50.34406118 -13 54 C-17.95 54 -22.9 54 -28 54 C-26.66718586 50.00155759 -25.64286864 47.05900205 -23.671875 43.515625 C-23.20813477 42.67467285 -22.74439453 41.8337207 -22.26660156 40.96728516 C-21.51588379 39.622229 -21.51588379 39.622229 -20.75 38.25 C-19.6762964 36.30512173 -18.60341703 34.35978827 -17.53125 32.4140625 C-16.96277344 31.38442383 -16.39429688 30.35478516 -15.80859375 29.29394531 C-12.58567402 23.42412444 -9.4195864 17.52373703 -6.25 11.625 C-5.31945801 9.89491699 -5.31945801 9.89491699 -4.37011719 8.12988281 C-2.91284403 5.42022697 -1.45633429 2.71016056 0 0 Z M8 8 C6.16345631 11.64422487 4.33130428 15.29063976 2.5 18.9375 C1.97535156 19.97841797 1.45070313 21.01933594 0.91015625 22.09179688 C0.41386719 23.08115234 -0.08242188 24.07050781 -0.59375 25.08984375 C-1.05458984 26.00628662 -1.51542969 26.92272949 -1.99023438 27.86694336 C-3.07131141 29.75730835 -3.07131141 29.75730835 -3 31 C4.26 31 11.52 31 19 31 C17.02765381 25.08296143 15.14801477 19.87766299 12.3125 14.4375 C11.99216797 13.81037109 11.67183594 13.18324219 11.34179688 12.53710938 C10.56681794 11.02185205 9.78424704 9.51048128 9 8 C8.67 8 8.34 8 8 8 Z " fill="#0055A0" transform="translate(818,632)"/>
<path d="M0 0 C0.8206897 -0.0033284 1.64137939 -0.0066568 2.48693848 -0.01008606 C4.23217202 -0.01516278 5.97741533 -0.01749416 7.72265625 -0.01733398 C10.36735637 -0.0194994 13.01162497 -0.03758784 15.65625 -0.05664062 C17.35416525 -0.05957878 19.05208247 -0.06156075 20.75 -0.0625 C21.92242249 -0.07327827 21.92242249 -0.07327827 23.11853027 -0.08427429 C30.059737 -0.05605913 37.36310794 0.62251178 43.28125 4.54296875 C43.90773438 4.94257812 44.53421875 5.3421875 45.1796875 5.75390625 C47.95578223 8.02754039 49.68294038 9.94881892 50.33984375 13.53515625 C50.34871431 19.23005669 50.06485482 22.91034953 45.90625 27.16796875 C33.91072821 35.1575649 20.72384682 34.37575216 6.90625 34.16796875 C7.23625 40.76796875 7.56625 47.36796875 7.90625 54.16796875 C2.62625 54.16796875 -2.65375 54.16796875 -8.09375 54.16796875 C-8.26092236 46.63838915 -8.42152631 39.10870975 -8.57592773 31.57885742 C-8.62943935 29.01501656 -8.68477543 26.45121312 -8.74194336 23.88745117 C-8.82359943 20.21150792 -8.89878532 16.53548188 -8.97265625 12.859375 C-9.01320885 11.12815147 -9.01320885 11.12815147 -9.05458069 9.36195374 C-9.07467697 8.30092941 -9.09477325 7.23990509 -9.11547852 6.14672852 C-9.13546402 5.20740982 -9.15544952 4.26809113 -9.17604065 3.30030823 C-8.9851929 -1.64499483 -3.80614263 0.005309 0 0 Z M6.90625 7.16796875 C6.90625 13.76796875 6.90625 20.36796875 6.90625 27.16796875 C21.95953459 27.83019866 21.95953459 27.83019866 34.90625 21.16796875 C36.31974769 17.77378654 36.31974769 17.77378654 35.90625 14.16796875 C32.80782425 9.94284272 29.89234642 8.44454682 24.90625 7.16796875 C21.77408146 6.94220466 18.66929811 6.97841396 15.53125 7.04296875 C12.685 7.08421875 9.83875 7.12546875 6.90625 7.16796875 Z " fill="#0055A0" transform="translate(1033.09375,631.83203125)"/>
<path d="M0 0 C0.9215538 0.00222061 1.8431076 0.00444122 2.79258728 0.00672913 C3.83359085 0.00680466 4.87459442 0.00688019 5.94714355 0.00695801 C7.07941879 0.01211929 8.21169403 0.01728058 9.37828064 0.02259827 C10.53106003 0.02401321 11.68383942 0.02542816 12.87155151 0.02688599 C16.57043503 0.03250446 20.26925903 0.0450601 23.96812439 0.05775452 C26.46877456 0.06276714 28.96942567 0.06733045 31.47007751 0.07142639 C37.61528027 0.0824799 43.76044808 0.099236 49.90562439 0.12025452 C49.57562439 2.76025452 49.24562439 5.40025452 48.90562439 8.12025452 C36.69562439 8.12025452 24.48562439 8.12025452 11.90562439 8.12025452 C11.90562439 13.07025452 11.90562439 18.02025452 11.90562439 23.12025452 C13.18695251 23.04806702 14.46828064 22.97587952 15.78843689 22.90150452 C25.84209313 22.35519484 35.83442219 21.97018693 45.90562439 22.12025452 C46.90562439 25.12025452 46.90562439 25.12025452 45.90562439 30.12025452 C34.68562439 30.12025452 23.46562439 30.12025452 11.90562439 30.12025452 C11.90562439 35.73025452 11.90562439 41.34025452 11.90562439 47.12025452 C24.44562439 47.12025452 36.98562439 47.12025452 49.90562439 47.12025452 C49.90562439 49.43025452 49.90562439 51.74025452 49.90562439 54.12025452 C32.41562439 54.12025452 14.92562439 54.12025452 -3.09437561 54.12025452 C-3.11500061 45.39587952 -3.13562561 36.67150452 -3.15687561 27.68275452 C-3.16597961 24.92488586 -3.17508362 22.16701721 -3.1844635 19.32557678 C-3.18738245 17.15427194 -3.18993106 14.98296655 -3.19203186 12.81166077 C-3.19714783 11.6724115 -3.20226379 10.53316223 -3.20753479 9.35939026 C-3.20765564 8.28346619 -3.20777649 7.20754211 -3.207901 6.09901428 C-3.21012161 5.15969559 -3.21234222 4.22037689 -3.21463013 3.25259399 C-3.05326908 0.39135813 -2.86073085 0.16425698 0 0 Z " fill="#0055A0" transform="translate(1426.0943756103516,631.8797454833984)"/>
<path d="M0 0 C16.17 0 32.34 0 49 0 C49 4.29 49 8.58 49 13 C37.78 13 26.56 13 15 13 C15 16.3 15 19.6 15 23 C21.27 23 27.54 23 34 23 C34 27.62 34 32.24 34 37 C27.73 37 21.46 37 15 37 C15 43.27 15 49.54 15 56 C10.05 56 5.1 56 0 56 C0 37.52 0 19.04 0 0 Z " fill="#0055A0" transform="translate(591,703)"/>
<path d="M0 0 C-0.33 2.97 -0.66 5.94 -1 9 C-7.55240485 8.1179455 -7.55240485 8.1179455 -9.97436523 7.47973633 C-20.3290323 5.02741371 -32.58404203 6.26610554 -42 11 C-42.73089844 11.33773437 -43.46179688 11.67546875 -44.21484375 12.0234375 C-46.60023508 13.32835617 -47.02084002 14.48216006 -48 17 C-48.391875 17.86625 -48.78375 18.7325 -49.1875 19.625 C-50.46427372 24.92852162 -50.27491059 29.98709471 -48.12890625 35.05859375 C-44.63868018 40.67435542 -39.28507831 42.79229645 -33.10986328 44.53271484 C-23.92841705 46.56618951 -12.88528073 45.63727799 -4.06640625 42.65625 C-2 42 -2 42 1 42 C0.67 44.97 0.34 47.94 0 51 C-7.93147834 53.59039231 -15.11590724 54.46729123 -23.4375 54.375 C-24.47970703 54.38660156 -25.52191406 54.39820313 -26.59570312 54.41015625 C-38.80757463 54.36473081 -50.28378851 51.84442798 -59.625 43.55859375 C-64.89783776 37.79927393 -66.56947796 31.0797642 -66.27734375 23.44921875 C-65.51850368 16.74791278 -63.04028017 12.15025103 -58.0625 7.59765625 C-42.02499562 -4.82533483 -18.9024717 -3.80085607 0 0 Z " fill="#0055A0" transform="translate(654,633)"/>
<path d="M0 0 C7.41013381 -1.3308666 15.08367338 -2.59462913 21.66650391 1.76660156 C27.33338365 6.64579459 32.27307032 12.21799023 37 18 C40.51827362 15.15655116 43.84482547 12.36391135 46.640625 8.7890625 C53.22418684 0.62625053 53.22418684 0.62625053 58.40234375 -0.54199219 C63.98141499 -1.03907485 69.44703246 -0.62732269 75 0 C71.64972931 3.94945231 68.27157928 7.86483533 64.76293945 11.67480469 C63.75725664 12.76698874 62.76025199 13.86720294 61.77026367 14.97363281 C59.23305316 17.77110015 56.8444908 20.1173942 53.8125 22.40625 C49.35028225 25.89235761 46.52178078 28.31237919 45.43359375 33.91748047 C44.68159033 41.28300818 44.75569549 48.60836814 45 56 C40.05 56 35.1 56 30 56 C30.05542969 54.40671875 30.11085938 52.8134375 30.16796875 51.171875 C30.69038843 37.12080089 30.69038843 37.12080089 24.25 25.3125 C22.74016226 23.97611621 21.2280519 22.64011239 19.65722656 21.37597656 C17.23171628 19.36210268 15.04081739 17.1390229 12.82324219 14.90112305 C11.72898443 13.79695467 10.62357101 12.70367694 9.50488281 11.62426758 C5.81817654 8.03394202 2.89503608 4.2570918 0 0 Z " fill="#0055A0" transform="translate(672,703)"/>
<path d="M0 0 C15.51 0 31.02 0 47 0 C47 4.29 47 8.58 47 13 C42.05 13 37.1 13 32 13 C32 27.19 32 41.38 32 56 C27.05 56 22.1 56 17 56 C17 41.81 17 27.62 17 13 C11.39 13 5.78 13 0 13 C0 8.71 0 4.42 0 0 Z " fill="#0055A0" transform="translate(781,703)"/>
</svg>
